<svg width="24" height="24" viewBox="0 0 24 24" fill="none" xmlns="http://www.w3.org/2000/svg">
<g clip-path="url(#clip0_1653_267)">
<path d="M11.9001 22.9501C18.0028 22.9501 22.9501 18.0028 22.9501 11.9001C22.9501 5.79735 18.0028 0.850098 11.9001 0.850098C5.79735 0.850098 0.850098 5.79735 0.850098 11.9001C0.850098 18.0028 5.79735 22.9501 11.9001 22.9501Z" fill="#FADAA2" stroke="#FADAA2" stroke-linecap="round" stroke-linejoin="round"/>
<path d="M6.80029 13.6L10.2853 16.388C10.3789 16.4651 10.4885 16.5204 10.6061 16.5498C10.7237 16.5792 10.8464 16.582 10.9653 16.558C11.0853 16.5355 11.199 16.4874 11.2988 16.417C11.3985 16.3466 11.4819 16.2556 11.5433 16.15L17.0003 6.80005" stroke="#000001" stroke-linecap="round" stroke-linejoin="round"/>
</g>
<defs>
<clipPath id="clip0_1653_267">
<rect width="23.8" height="23.8" fill="white"/>
</clipPath>
</defs>
</svg>
