<svg width="564" height="469" viewBox="0 0 564 469" fill="none" xmlns="http://www.w3.org/2000/svg">
<g filter="url(#filter0_dd_1_3090)">
<rect x="4" y="1" width="556" height="460" rx="8" />
<path d="M34.723 35.68C33.529 35.68 32.491 35.41 31.609 34.87C30.733 34.324 30.055 33.553 29.575 32.557C29.101 31.561 28.864 30.385 28.864 29.029C28.864 27.649 29.113 26.458 29.611 25.456C30.115 24.448 30.817 23.671 31.717 23.125C32.617 22.579 33.667 22.306 34.867 22.306C35.641 22.306 36.346 22.429 36.982 22.675C37.618 22.921 38.17 23.257 38.638 23.683C39.112 24.109 39.481 24.592 39.745 25.132C40.015 25.666 40.162 26.221 40.186 26.797H37.414C37.336 26.383 37.18 26.005 36.946 25.663C36.718 25.321 36.424 25.048 36.064 24.844C35.704 24.634 35.284 24.529 34.804 24.529C34.228 24.529 33.706 24.679 33.238 24.979C32.77 25.273 32.401 25.744 32.131 26.392C31.861 27.04 31.726 27.895 31.726 28.957C31.726 29.815 31.813 30.529 31.987 31.099C32.167 31.669 32.407 32.122 32.707 32.458C33.007 32.788 33.349 33.022 33.733 33.16C34.117 33.298 34.51 33.367 34.912 33.367C35.296 33.367 35.638 33.304 35.938 33.178C36.244 33.046 36.505 32.878 36.721 32.674C36.937 32.47 37.108 32.248 37.234 32.008C37.36 31.762 37.441 31.522 37.477 31.288L37.576 30.496H34.885V28.678L40.33 28.705V35.5H38.539V33.799C38.317 34.093 38.041 34.387 37.711 34.681C37.387 34.969 36.982 35.209 36.496 35.401C36.016 35.587 35.425 35.68 34.723 35.68ZM46.9682 35.68C46.0442 35.68 45.2312 35.488 44.5292 35.104C43.8332 34.714 43.2902 34.165 42.9002 33.457C42.5102 32.749 42.3152 31.915 42.3152 30.955C42.3152 30.025 42.4922 29.188 42.8462 28.444C43.2062 27.694 43.7222 27.103 44.3942 26.671C45.0662 26.233 45.8792 26.014 46.8332 26.014C47.7812 26.014 48.5762 26.215 49.2182 26.617C49.8602 27.013 50.3462 27.568 50.6762 28.282C51.0062 28.99 51.1712 29.809 51.1712 30.739V31.45H44.9162C44.9162 31.924 44.9942 32.338 45.1502 32.692C45.3062 33.04 45.5312 33.31 45.8252 33.502C46.1252 33.688 46.4852 33.781 46.9052 33.781C47.3552 33.781 47.7482 33.685 48.0842 33.493C48.4202 33.301 48.6572 32.986 48.7952 32.548H51.1622C51.0542 33.208 50.7902 33.772 50.3702 34.24C49.9502 34.708 49.4402 35.065 48.8402 35.311C48.2402 35.557 47.6162 35.68 46.9682 35.68ZM44.9162 29.884H48.7142C48.7142 29.512 48.6422 29.17 48.4982 28.858C48.3602 28.546 48.1502 28.3 47.8682 28.12C47.5922 27.94 47.2442 27.85 46.8242 27.85C46.4222 27.85 46.0772 27.949 45.7892 28.147C45.5072 28.339 45.2882 28.591 45.1322 28.903C44.9822 29.215 44.9102 29.542 44.9162 29.884ZM55.9443 35.662C55.2603 35.662 54.7173 35.581 54.3153 35.419C53.9133 35.257 53.6163 35.044 53.4243 34.78C53.2323 34.51 53.1093 34.213 53.0553 33.889C53.0013 33.559 52.9743 33.226 52.9743 32.89V22.126H55.5483V32.566C55.5483 32.908 55.6203 33.187 55.7643 33.403C55.9143 33.613 56.1933 33.742 56.6013 33.79L57.0423 33.817V35.437C56.8623 35.497 56.6793 35.548 56.4933 35.59C56.3073 35.638 56.1243 35.662 55.9443 35.662ZM58.4819 31.828V29.911H63.3959V31.819L58.4819 31.828ZM65.5033 38.398V26.194H68.1403L68.1493 27.535C68.2873 27.313 68.4553 27.112 68.6533 26.932C68.8573 26.746 69.0823 26.584 69.3283 26.446C69.5743 26.308 69.8413 26.203 70.1293 26.131C70.4173 26.053 70.7203 26.014 71.0383 26.014C71.7283 26.014 72.3433 26.185 72.8833 26.527C73.4233 26.863 73.8463 27.385 74.1523 28.093C74.4643 28.795 74.6203 29.689 74.6203 30.775C74.6203 31.903 74.4523 32.83 74.1163 33.556C73.7863 34.276 73.3303 34.81 72.7483 35.158C72.1663 35.506 71.5093 35.68 70.7773 35.68C70.4773 35.68 70.1953 35.638 69.9313 35.554C69.6673 35.476 69.4213 35.365 69.1933 35.221C68.9713 35.077 68.7703 34.912 68.5903 34.726C68.4163 34.534 68.2633 34.327 68.1313 34.105V38.398H65.5033ZM70.1473 33.754C70.7173 33.754 71.1943 33.517 71.5783 33.043C71.9683 32.569 72.1633 31.819 72.1633 30.793C72.1633 29.893 71.9773 29.191 71.6053 28.687C71.2393 28.177 70.7533 27.922 70.1473 27.922C69.4693 27.922 68.9623 28.198 68.6263 28.75C68.2963 29.296 68.1313 29.977 68.1313 30.793C68.1313 31.315 68.2033 31.801 68.3473 32.251C68.4973 32.701 68.7193 33.064 69.0133 33.34C69.3133 33.616 69.6913 33.754 70.1473 33.754ZM76.3469 35.5V26.194H78.8759V28.399C79.0259 27.925 79.2359 27.511 79.5059 27.157C79.7819 26.797 80.1149 26.518 80.5049 26.32C80.8949 26.116 81.3359 26.014 81.8279 26.014C81.9119 26.014 81.9899 26.02 82.0619 26.032C82.1399 26.038 82.1969 26.05 82.2329 26.068V28.57C82.1789 28.546 82.1129 28.531 82.0349 28.525C81.9629 28.519 81.8969 28.513 81.8369 28.507C81.3209 28.465 80.8799 28.48 80.5139 28.552C80.1479 28.624 79.8509 28.747 79.6229 28.921C79.3949 29.095 79.2299 29.308 79.1279 29.56C79.0259 29.812 78.9749 30.094 78.9749 30.406V35.5H76.3469ZM87.7163 35.68C86.8043 35.68 86.0093 35.485 85.3313 35.095C84.6593 34.705 84.1373 34.153 83.7653 33.439C83.3993 32.725 83.2163 31.879 83.2163 30.901C83.2163 29.923 83.3993 29.068 83.7653 28.336C84.1373 27.604 84.6593 27.034 85.3313 26.626C86.0093 26.218 86.8073 26.014 87.7253 26.014C88.6433 26.014 89.4383 26.215 90.1103 26.617C90.7823 27.013 91.3013 27.577 91.6673 28.309C92.0333 29.041 92.2163 29.905 92.2163 30.901C92.2163 31.837 92.0363 32.665 91.6763 33.385C91.3223 34.099 90.8093 34.66 90.1373 35.068C89.4713 35.476 88.6643 35.68 87.7163 35.68ZM87.7253 33.727C88.1873 33.727 88.5593 33.592 88.8413 33.322C89.1233 33.052 89.3273 32.698 89.4533 32.26C89.5793 31.816 89.6423 31.333 89.6423 30.811C89.6423 30.319 89.5853 29.854 89.4713 29.416C89.3573 28.978 89.1593 28.624 88.8773 28.354C88.5953 28.084 88.2113 27.949 87.7253 27.949C87.2633 27.949 86.8883 28.078 86.6003 28.336C86.3183 28.588 86.1113 28.933 85.9793 29.371C85.8473 29.803 85.7813 30.283 85.7813 30.811C85.7813 31.297 85.8413 31.765 85.9613 32.215C86.0813 32.659 86.2823 33.022 86.5643 33.304C86.8463 33.586 87.2333 33.727 87.7253 33.727ZM97.636 35.599C96.814 35.599 96.178 35.494 95.728 35.284C95.284 35.074 94.975 34.78 94.801 34.402C94.633 34.024 94.549 33.586 94.549 33.088V28.021H93.037V26.194H94.63L95.296 23.386H97.168V26.185H99.238V28.021H97.168L97.186 32.98C97.186 33.208 97.213 33.379 97.267 33.493C97.327 33.601 97.417 33.673 97.537 33.709C97.663 33.739 97.822 33.754 98.014 33.754H99.265V35.374C99.139 35.428 98.95 35.479 98.698 35.527C98.446 35.575 98.092 35.599 97.636 35.599ZM104.996 35.68C104.072 35.68 103.259 35.488 102.557 35.104C101.861 34.714 101.318 34.165 100.928 33.457C100.538 32.749 100.343 31.915 100.343 30.955C100.343 30.025 100.52 29.188 100.874 28.444C101.234 27.694 101.75 27.103 102.422 26.671C103.094 26.233 103.907 26.014 104.861 26.014C105.809 26.014 106.604 26.215 107.246 26.617C107.888 27.013 108.374 27.568 108.704 28.282C109.034 28.99 109.199 29.809 109.199 30.739V31.45H102.944C102.944 31.924 103.022 32.338 103.178 32.692C103.334 33.04 103.559 33.31 103.853 33.502C104.153 33.688 104.513 33.781 104.933 33.781C105.383 33.781 105.776 33.685 106.112 33.493C106.448 33.301 106.685 32.986 106.823 32.548H109.19C109.082 33.208 108.818 33.772 108.398 34.24C107.978 34.708 107.468 35.065 106.868 35.311C106.268 35.557 105.644 35.68 104.996 35.68ZM102.944 29.884H106.742C106.742 29.512 106.67 29.17 106.526 28.858C106.388 28.546 106.178 28.3 105.896 28.12C105.62 27.94 105.272 27.85 104.852 27.85C104.45 27.85 104.105 27.949 103.817 28.147C103.535 28.339 103.316 28.591 103.16 28.903C103.01 29.215 102.938 29.542 102.944 29.884ZM115.053 35.68C114.189 35.68 113.418 35.488 112.74 35.104C112.062 34.72 111.528 34.171 111.138 33.457C110.754 32.737 110.562 31.879 110.562 30.883C110.562 29.923 110.748 29.077 111.12 28.345C111.492 27.613 112.014 27.043 112.686 26.635C113.364 26.221 114.153 26.014 115.053 26.014C115.833 26.014 116.505 26.173 117.069 26.491C117.639 26.809 118.086 27.238 118.41 27.778C118.74 28.318 118.929 28.921 118.977 29.587H116.79C116.748 29.341 116.661 29.098 116.529 28.858C116.397 28.612 116.211 28.411 115.971 28.255C115.731 28.093 115.431 28.012 115.071 28.012C114.459 28.012 113.961 28.249 113.577 28.723C113.199 29.191 113.01 29.905 113.01 30.865C113.01 31.771 113.196 32.491 113.568 33.025C113.94 33.553 114.459 33.817 115.125 33.817C115.479 33.817 115.773 33.73 116.007 33.556C116.247 33.382 116.433 33.175 116.565 32.935C116.697 32.689 116.781 32.461 116.817 32.251H118.95C118.908 32.893 118.722 33.475 118.392 33.997C118.062 34.513 117.612 34.924 117.042 35.23C116.478 35.53 115.815 35.68 115.053 35.68ZM124.471 35.599C123.649 35.599 123.013 35.494 122.563 35.284C122.119 35.074 121.81 34.78 121.636 34.402C121.468 34.024 121.384 33.586 121.384 33.088V28.021H119.872V26.194H121.465L122.131 23.386H124.003V26.185H126.073V28.021H124.003L124.021 32.98C124.021 33.208 124.048 33.379 124.102 33.493C124.162 33.601 124.252 33.673 124.372 33.709C124.498 33.739 124.657 33.754 124.849 33.754H126.1V35.374C125.974 35.428 125.785 35.479 125.533 35.527C125.281 35.575 124.927 35.599 124.471 35.599ZM131.832 35.68C130.908 35.68 130.095 35.488 129.393 35.104C128.697 34.714 128.154 34.165 127.764 33.457C127.374 32.749 127.179 31.915 127.179 30.955C127.179 30.025 127.356 29.188 127.71 28.444C128.07 27.694 128.586 27.103 129.258 26.671C129.93 26.233 130.743 26.014 131.697 26.014C132.645 26.014 133.44 26.215 134.082 26.617C134.724 27.013 135.21 27.568 135.54 28.282C135.87 28.99 136.035 29.809 136.035 30.739V31.45H129.78C129.78 31.924 129.858 32.338 130.014 32.692C130.17 33.04 130.395 33.31 130.689 33.502C130.989 33.688 131.349 33.781 131.769 33.781C132.219 33.781 132.612 33.685 132.948 33.493C133.284 33.301 133.521 32.986 133.659 32.548H136.026C135.918 33.208 135.654 33.772 135.234 34.24C134.814 34.708 134.304 35.065 133.704 35.311C133.104 35.557 132.48 35.68 131.832 35.68ZM129.78 29.884H133.578C133.578 29.512 133.506 29.17 133.362 28.858C133.224 28.546 133.014 28.3 132.732 28.12C132.456 27.94 132.108 27.85 131.688 27.85C131.286 27.85 130.941 27.949 130.653 28.147C130.371 28.339 130.152 28.591 129.996 28.903C129.846 29.215 129.774 29.542 129.78 29.884ZM141.357 35.68C140.109 35.68 139.137 35.251 138.441 34.393C137.745 33.529 137.397 32.329 137.397 30.793C137.397 29.821 137.538 28.978 137.82 28.264C138.102 27.55 138.519 26.998 139.071 26.608C139.623 26.212 140.298 26.014 141.096 26.014C141.432 26.014 141.744 26.053 142.032 26.131C142.326 26.203 142.593 26.305 142.833 26.437C143.073 26.569 143.283 26.722 143.463 26.896C143.643 27.07 143.79 27.256 143.904 27.454V22.126H146.541V35.5H144.633L144.336 33.592C144.246 33.85 144.126 34.102 143.976 34.348C143.832 34.594 143.643 34.819 143.409 35.023C143.175 35.221 142.887 35.38 142.545 35.5C142.209 35.62 141.813 35.68 141.357 35.68ZM141.933 33.79C142.593 33.79 143.085 33.559 143.409 33.097C143.739 32.635 143.904 31.855 143.904 30.757C143.898 30.121 143.823 29.593 143.679 29.173C143.535 28.753 143.319 28.441 143.031 28.237C142.749 28.027 142.389 27.922 141.951 27.922C141.381 27.922 140.907 28.141 140.529 28.579C140.151 29.011 139.962 29.737 139.962 30.757C139.962 31.795 140.139 32.56 140.493 33.052C140.847 33.544 141.327 33.79 141.933 33.79ZM152.04 35.5L156.693 22.486H159.474L164.127 35.5H161.508L160.446 32.485H155.757L154.677 35.5H152.04ZM156.351 30.19H159.807L158.088 25.015L156.351 30.19ZM165.991 35.5V22.486H170.779C171.727 22.486 172.576 22.651 173.326 22.981C174.076 23.305 174.667 23.785 175.099 24.421C175.537 25.057 175.756 25.834 175.756 26.752C175.756 27.616 175.564 28.354 175.18 28.966C174.796 29.578 174.256 30.046 173.56 30.37C172.87 30.694 172.057 30.856 171.121 30.856H168.637V35.5H165.991ZM168.61 28.822H171.049C171.709 28.822 172.249 28.612 172.669 28.192C173.089 27.766 173.299 27.241 173.299 26.617C173.299 25.969 173.077 25.456 172.633 25.078C172.189 24.694 171.649 24.502 171.013 24.502H168.61V28.822ZM177.643 35.5V22.486H180.262V35.5H177.643ZM186.501 35.68C185.853 35.68 185.229 35.575 184.629 35.365C184.035 35.149 183.528 34.813 183.108 34.357C182.694 33.895 182.433 33.298 182.325 32.566H184.593C184.677 32.896 184.821 33.157 185.025 33.349C185.235 33.541 185.472 33.679 185.736 33.763C186 33.841 186.252 33.88 186.492 33.88C186.996 33.88 187.401 33.802 187.707 33.646C188.019 33.484 188.175 33.238 188.175 32.908C188.175 32.656 188.082 32.455 187.896 32.305C187.716 32.155 187.416 32.041 186.996 31.963L185.358 31.621C184.536 31.447 183.873 31.153 183.369 30.739C182.871 30.319 182.619 29.725 182.613 28.957C182.607 28.399 182.751 27.898 183.045 27.454C183.345 27.01 183.786 26.659 184.368 26.401C184.956 26.143 185.673 26.014 186.519 26.014C187.665 26.014 188.58 26.266 189.264 26.77C189.954 27.274 190.305 27.985 190.317 28.903H188.121C188.055 28.543 187.875 28.267 187.581 28.075C187.293 27.877 186.927 27.778 186.483 27.778C186.033 27.778 185.661 27.859 185.367 28.021C185.073 28.183 184.926 28.429 184.926 28.759C184.926 29.005 185.046 29.2 185.286 29.344C185.526 29.482 185.898 29.602 186.402 29.704L187.914 30.046C188.436 30.172 188.859 30.346 189.183 30.568C189.513 30.784 189.768 31.021 189.948 31.279C190.128 31.537 190.251 31.798 190.317 32.062C190.389 32.32 190.425 32.554 190.425 32.764C190.425 33.382 190.26 33.91 189.93 34.348C189.6 34.78 189.141 35.11 188.553 35.338C187.965 35.566 187.281 35.68 186.501 35.68ZM196.34 35.5V22.486H205.277L205.268 24.7H198.977V27.859H204.44V30.028H198.959V33.259L205.367 33.268V35.5H196.34ZM207.237 35.5V26.194H209.82V27.508C209.964 27.28 210.15 27.061 210.378 26.851C210.612 26.635 210.906 26.458 211.26 26.32C211.614 26.182 212.034 26.113 212.52 26.113C213.09 26.113 213.621 26.224 214.113 26.446C214.611 26.668 215.013 27.019 215.319 27.499C215.625 27.973 215.778 28.594 215.778 29.362V35.5H213.15V29.686C213.15 29.182 213 28.804 212.7 28.552C212.4 28.3 212.034 28.174 211.602 28.174C211.314 28.174 211.035 28.225 210.765 28.327C210.501 28.429 210.285 28.582 210.117 28.786C209.949 28.99 209.865 29.242 209.865 29.542V35.5H207.237ZM221.473 35.68C220.825 35.68 220.201 35.575 219.601 35.365C219.007 35.149 218.5 34.813 218.08 34.357C217.666 33.895 217.405 33.298 217.297 32.566H219.565C219.649 32.896 219.793 33.157 219.997 33.349C220.207 33.541 220.444 33.679 220.708 33.763C220.972 33.841 221.224 33.88 221.464 33.88C221.968 33.88 222.373 33.802 222.679 33.646C222.991 33.484 223.147 33.238 223.147 32.908C223.147 32.656 223.054 32.455 222.868 32.305C222.688 32.155 222.388 32.041 221.968 31.963L220.33 31.621C219.508 31.447 218.845 31.153 218.341 30.739C217.843 30.319 217.591 29.725 217.585 28.957C217.579 28.399 217.723 27.898 218.017 27.454C218.317 27.01 218.758 26.659 219.34 26.401C219.928 26.143 220.645 26.014 221.491 26.014C222.637 26.014 223.552 26.266 224.236 26.77C224.926 27.274 225.277 27.985 225.289 28.903H223.093C223.027 28.543 222.847 28.267 222.553 28.075C222.265 27.877 221.899 27.778 221.455 27.778C221.005 27.778 220.633 27.859 220.339 28.021C220.045 28.183 219.898 28.429 219.898 28.759C219.898 29.005 220.018 29.2 220.258 29.344C220.498 29.482 220.87 29.602 221.374 29.704L222.886 30.046C223.408 30.172 223.831 30.346 224.155 30.568C224.485 30.784 224.74 31.021 224.92 31.279C225.1 31.537 225.223 31.798 225.289 32.062C225.361 32.32 225.397 32.554 225.397 32.764C225.397 33.382 225.232 33.91 224.902 34.348C224.572 34.78 224.113 35.11 223.525 35.338C222.937 35.566 222.253 35.68 221.473 35.68ZM230.56 35.68C230.128 35.68 229.702 35.614 229.282 35.482C228.868 35.35 228.49 35.155 228.148 34.897C227.806 34.639 227.53 34.321 227.32 33.943C227.116 33.565 227.014 33.127 227.014 32.629V26.194H229.642V32.296C229.642 32.728 229.783 33.082 230.065 33.358C230.347 33.634 230.761 33.772 231.307 33.772C231.823 33.772 232.231 33.64 232.531 33.376C232.837 33.106 232.99 32.731 232.99 32.251V26.194H235.591V35.5H233.611L233.305 33.655C233.197 34.201 232.993 34.621 232.693 34.915C232.399 35.203 232.06 35.401 231.676 35.509C231.298 35.623 230.926 35.68 230.56 35.68ZM237.799 35.5V26.194H240.328V28.399C240.478 27.925 240.688 27.511 240.958 27.157C241.234 26.797 241.567 26.518 241.957 26.32C242.347 26.116 242.788 26.014 243.28 26.014C243.364 26.014 243.442 26.02 243.514 26.032C243.592 26.038 243.649 26.05 243.685 26.068V28.57C243.631 28.546 243.565 28.531 243.487 28.525C243.415 28.519 243.349 28.513 243.289 28.507C242.773 28.465 242.332 28.48 241.966 28.552C241.6 28.624 241.303 28.747 241.075 28.921C240.847 29.095 240.682 29.308 240.58 29.56C240.478 29.812 240.427 30.094 240.427 30.406V35.5H237.799ZM249.385 35.68C248.461 35.68 247.648 35.488 246.946 35.104C246.25 34.714 245.707 34.165 245.317 33.457C244.927 32.749 244.732 31.915 244.732 30.955C244.732 30.025 244.909 29.188 245.263 28.444C245.623 27.694 246.139 27.103 246.811 26.671C247.483 26.233 248.296 26.014 249.25 26.014C250.198 26.014 250.993 26.215 251.635 26.617C252.277 27.013 252.763 27.568 253.093 28.282C253.423 28.99 253.588 29.809 253.588 30.739V31.45H247.333C247.333 31.924 247.411 32.338 247.567 32.692C247.723 33.04 247.948 33.31 248.242 33.502C248.542 33.688 248.902 33.781 249.322 33.781C249.772 33.781 250.165 33.685 250.501 33.493C250.837 33.301 251.074 32.986 251.212 32.548H253.579C253.471 33.208 253.207 33.772 252.787 34.24C252.367 34.708 251.857 35.065 251.257 35.311C250.657 35.557 250.033 35.68 249.385 35.68ZM247.333 29.884H251.131C251.131 29.512 251.059 29.17 250.915 28.858C250.777 28.546 250.567 28.3 250.285 28.12C250.009 27.94 249.661 27.85 249.241 27.85C248.839 27.85 248.494 27.949 248.206 28.147C247.924 28.339 247.705 28.591 247.549 28.903C247.399 29.215 247.327 29.542 247.333 29.884ZM263.052 35.68C262.404 35.68 261.78 35.575 261.18 35.365C260.586 35.149 260.079 34.813 259.659 34.357C259.245 33.895 258.984 33.298 258.876 32.566H261.144C261.228 32.896 261.372 33.157 261.576 33.349C261.786 33.541 262.023 33.679 262.287 33.763C262.551 33.841 262.803 33.88 263.043 33.88C263.547 33.88 263.952 33.802 264.258 33.646C264.57 33.484 264.726 33.238 264.726 32.908C264.726 32.656 264.633 32.455 264.447 32.305C264.267 32.155 263.967 32.041 263.547 31.963L261.909 31.621C261.087 31.447 260.424 31.153 259.92 30.739C259.422 30.319 259.17 29.725 259.164 28.957C259.158 28.399 259.302 27.898 259.596 27.454C259.896 27.01 260.337 26.659 260.919 26.401C261.507 26.143 262.224 26.014 263.07 26.014C264.216 26.014 265.131 26.266 265.815 26.77C266.505 27.274 266.856 27.985 266.868 28.903H264.672C264.606 28.543 264.426 28.267 264.132 28.075C263.844 27.877 263.478 27.778 263.034 27.778C262.584 27.778 262.212 27.859 261.918 28.021C261.624 28.183 261.477 28.429 261.477 28.759C261.477 29.005 261.597 29.2 261.837 29.344C262.077 29.482 262.449 29.602 262.953 29.704L264.465 30.046C264.987 30.172 265.41 30.346 265.734 30.568C266.064 30.784 266.319 31.021 266.499 31.279C266.679 31.537 266.802 31.798 266.868 32.062C266.94 32.32 266.976 32.554 266.976 32.764C266.976 33.382 266.811 33.91 266.481 34.348C266.151 34.78 265.692 35.11 265.104 35.338C264.516 35.566 263.832 35.68 263.052 35.68ZM271.681 35.662C270.997 35.662 270.454 35.581 270.052 35.419C269.65 35.257 269.353 35.044 269.161 34.78C268.969 34.51 268.846 34.213 268.792 33.889C268.738 33.559 268.711 33.226 268.711 32.89V22.126H271.285V32.566C271.285 32.908 271.357 33.187 271.501 33.403C271.651 33.613 271.93 33.742 272.338 33.79L272.779 33.817V35.437C272.599 35.497 272.416 35.548 272.23 35.59C272.044 35.638 271.861 35.662 271.681 35.662ZM278.059 35.68C277.147 35.68 276.352 35.485 275.674 35.095C275.002 34.705 274.48 34.153 274.108 33.439C273.742 32.725 273.559 31.879 273.559 30.901C273.559 29.923 273.742 29.068 274.108 28.336C274.48 27.604 275.002 27.034 275.674 26.626C276.352 26.218 277.15 26.014 278.068 26.014C278.986 26.014 279.781 26.215 280.453 26.617C281.125 27.013 281.644 27.577 282.01 28.309C282.376 29.041 282.559 29.905 282.559 30.901C282.559 31.837 282.379 32.665 282.019 33.385C281.665 34.099 281.152 34.66 280.48 35.068C279.814 35.476 279.007 35.68 278.059 35.68ZM278.068 33.727C278.53 33.727 278.902 33.592 279.184 33.322C279.466 33.052 279.67 32.698 279.796 32.26C279.922 31.816 279.985 31.333 279.985 30.811C279.985 30.319 279.928 29.854 279.814 29.416C279.7 28.978 279.502 28.624 279.22 28.354C278.938 28.084 278.554 27.949 278.068 27.949C277.606 27.949 277.231 28.078 276.943 28.336C276.661 28.588 276.454 28.933 276.322 29.371C276.19 29.803 276.124 30.283 276.124 30.811C276.124 31.297 276.184 31.765 276.304 32.215C276.424 32.659 276.625 33.022 276.907 33.304C277.189 33.586 277.576 33.727 278.068 33.727ZM286.177 35.5L283.162 26.194H285.484L287.266 31.963H287.329L289.039 26.194H290.92L292.648 31.963H292.72L294.448 26.194H296.824L293.764 35.5H291.667L289.939 29.866L288.202 35.5H286.177ZM301.96 35.5V26.194H304.489V28.399C304.639 27.925 304.849 27.511 305.119 27.157C305.395 26.797 305.728 26.518 306.118 26.32C306.508 26.116 306.949 26.014 307.441 26.014C307.525 26.014 307.603 26.02 307.675 26.032C307.753 26.038 307.81 26.05 307.846 26.068V28.57C307.792 28.546 307.726 28.531 307.648 28.525C307.576 28.519 307.51 28.513 307.45 28.507C306.934 28.465 306.493 28.48 306.127 28.552C305.761 28.624 305.464 28.747 305.236 28.921C305.008 29.095 304.843 29.308 304.741 29.56C304.639 29.812 304.588 30.094 304.588 30.406V35.5H301.96ZM313.545 35.68C312.621 35.68 311.808 35.488 311.106 35.104C310.41 34.714 309.867 34.165 309.477 33.457C309.087 32.749 308.892 31.915 308.892 30.955C308.892 30.025 309.069 29.188 309.423 28.444C309.783 27.694 310.299 27.103 310.971 26.671C311.643 26.233 312.456 26.014 313.41 26.014C314.358 26.014 315.153 26.215 315.795 26.617C316.437 27.013 316.923 27.568 317.253 28.282C317.583 28.99 317.748 29.809 317.748 30.739V31.45H311.493C311.493 31.924 311.571 32.338 311.727 32.692C311.883 33.04 312.108 33.31 312.402 33.502C312.702 33.688 313.062 33.781 313.482 33.781C313.932 33.781 314.325 33.685 314.661 33.493C314.997 33.301 315.234 32.986 315.372 32.548H317.739C317.631 33.208 317.367 33.772 316.947 34.24C316.527 34.708 316.017 35.065 315.417 35.311C314.817 35.557 314.193 35.68 313.545 35.68ZM311.493 29.884H315.291C315.291 29.512 315.219 29.17 315.075 28.858C314.937 28.546 314.727 28.3 314.445 28.12C314.169 27.94 313.821 27.85 313.401 27.85C312.999 27.85 312.654 27.949 312.366 28.147C312.084 28.339 311.865 28.591 311.709 28.903C311.559 29.215 311.487 29.542 311.493 29.884ZM322.521 35.662C321.837 35.662 321.294 35.581 320.892 35.419C320.49 35.257 320.193 35.044 320.001 34.78C319.809 34.51 319.686 34.213 319.632 33.889C319.578 33.559 319.551 33.226 319.551 32.89V22.126H322.125V32.566C322.125 32.908 322.197 33.187 322.341 33.403C322.491 33.613 322.77 33.742 323.178 33.79L323.619 33.817V35.437C323.439 35.497 323.256 35.548 323.07 35.59C322.884 35.638 322.701 35.662 322.521 35.662ZM329.115 35.68C328.191 35.68 327.378 35.488 326.676 35.104C325.98 34.714 325.437 34.165 325.047 33.457C324.657 32.749 324.462 31.915 324.462 30.955C324.462 30.025 324.639 29.188 324.993 28.444C325.353 27.694 325.869 27.103 326.541 26.671C327.213 26.233 328.026 26.014 328.98 26.014C329.928 26.014 330.723 26.215 331.365 26.617C332.007 27.013 332.493 27.568 332.823 28.282C333.153 28.99 333.318 29.809 333.318 30.739V31.45H327.063C327.063 31.924 327.141 32.338 327.297 32.692C327.453 33.04 327.678 33.31 327.972 33.502C328.272 33.688 328.632 33.781 329.052 33.781C329.502 33.781 329.895 33.685 330.231 33.493C330.567 33.301 330.804 32.986 330.942 32.548H333.309C333.201 33.208 332.937 33.772 332.517 34.24C332.097 34.708 331.587 35.065 330.987 35.311C330.387 35.557 329.763 35.68 329.115 35.68ZM327.063 29.884H330.861C330.861 29.512 330.789 29.17 330.645 28.858C330.507 28.546 330.297 28.3 330.015 28.12C329.739 27.94 329.391 27.85 328.971 27.85C328.569 27.85 328.224 27.949 327.936 28.147C327.654 28.339 327.435 28.591 327.279 28.903C327.129 29.215 327.057 29.542 327.063 29.884ZM337.832 35.68C337.244 35.68 336.71 35.569 336.23 35.347C335.756 35.125 335.381 34.804 335.105 34.384C334.829 33.958 334.691 33.442 334.691 32.836C334.691 31.816 335.072 31.042 335.834 30.514C336.596 29.98 337.799 29.704 339.443 29.686L340.613 29.668V29.11C340.613 28.684 340.487 28.357 340.235 28.129C339.989 27.895 339.602 27.781 339.074 27.787C338.696 27.793 338.333 27.883 337.985 28.057C337.643 28.231 337.406 28.534 337.274 28.966H335.087C335.123 28.294 335.318 27.742 335.672 27.31C336.032 26.872 336.515 26.548 337.121 26.338C337.727 26.122 338.42 26.014 339.2 26.014C340.148 26.014 340.91 26.134 341.486 26.374C342.062 26.608 342.479 26.947 342.737 27.391C343.001 27.829 343.133 28.351 343.133 28.957V35.5H340.937L340.721 33.898C340.403 34.57 340.004 35.035 339.524 35.293C339.05 35.551 338.486 35.68 337.832 35.68ZM338.723 33.952C338.957 33.952 339.185 33.91 339.407 33.826C339.635 33.736 339.839 33.619 340.019 33.475C340.199 33.325 340.34 33.157 340.442 32.971C340.55 32.785 340.607 32.593 340.613 32.395V31.018L339.668 31.036C339.23 31.042 338.822 31.096 338.444 31.198C338.066 31.294 337.76 31.453 337.526 31.675C337.298 31.897 337.184 32.197 337.184 32.575C337.184 33.007 337.331 33.346 337.625 33.592C337.925 33.832 338.291 33.952 338.723 33.952ZM348.83 35.68C348.182 35.68 347.558 35.575 346.958 35.365C346.364 35.149 345.857 34.813 345.437 34.357C345.023 33.895 344.762 33.298 344.654 32.566H346.922C347.006 32.896 347.15 33.157 347.354 33.349C347.564 33.541 347.801 33.679 348.065 33.763C348.329 33.841 348.581 33.88 348.821 33.88C349.325 33.88 349.73 33.802 350.036 33.646C350.348 33.484 350.504 33.238 350.504 32.908C350.504 32.656 350.411 32.455 350.225 32.305C350.045 32.155 349.745 32.041 349.325 31.963L347.687 31.621C346.865 31.447 346.202 31.153 345.698 30.739C345.2 30.319 344.948 29.725 344.942 28.957C344.936 28.399 345.08 27.898 345.374 27.454C345.674 27.01 346.115 26.659 346.697 26.401C347.285 26.143 348.002 26.014 348.848 26.014C349.994 26.014 350.909 26.266 351.593 26.77C352.283 27.274 352.634 27.985 352.646 28.903H350.45C350.384 28.543 350.204 28.267 349.91 28.075C349.622 27.877 349.256 27.778 348.812 27.778C348.362 27.778 347.99 27.859 347.696 28.021C347.402 28.183 347.255 28.429 347.255 28.759C347.255 29.005 347.375 29.2 347.615 29.344C347.855 29.482 348.227 29.602 348.731 29.704L350.243 30.046C350.765 30.172 351.188 30.346 351.512 30.568C351.842 30.784 352.097 31.021 352.277 31.279C352.457 31.537 352.58 31.798 352.646 32.062C352.718 32.32 352.754 32.554 352.754 32.764C352.754 33.382 352.589 33.91 352.259 34.348C351.929 34.78 351.47 35.11 350.882 35.338C350.294 35.566 349.61 35.68 348.83 35.68ZM358.763 35.68C357.839 35.68 357.026 35.488 356.324 35.104C355.628 34.714 355.085 34.165 354.695 33.457C354.305 32.749 354.11 31.915 354.11 30.955C354.11 30.025 354.287 29.188 354.641 28.444C355.001 27.694 355.517 27.103 356.189 26.671C356.861 26.233 357.674 26.014 358.628 26.014C359.576 26.014 360.371 26.215 361.013 26.617C361.655 27.013 362.141 27.568 362.471 28.282C362.801 28.99 362.966 29.809 362.966 30.739V31.45H356.711C356.711 31.924 356.789 32.338 356.945 32.692C357.101 33.04 357.326 33.31 357.62 33.502C357.92 33.688 358.28 33.781 358.7 33.781C359.15 33.781 359.543 33.685 359.879 33.493C360.215 33.301 360.452 32.986 360.59 32.548H362.957C362.849 33.208 362.585 33.772 362.165 34.24C361.745 34.708 361.235 35.065 360.635 35.311C360.035 35.557 359.411 35.68 358.763 35.68ZM356.711 29.884H360.509C360.509 29.512 360.437 29.17 360.293 28.858C360.155 28.546 359.945 28.3 359.663 28.12C359.387 27.94 359.039 27.85 358.619 27.85C358.217 27.85 357.872 27.949 357.584 28.147C357.302 28.339 357.083 28.591 356.927 28.903C356.777 29.215 356.705 29.542 356.711 29.884ZM372.641 35.68C371.729 35.68 370.934 35.485 370.256 35.095C369.584 34.705 369.062 34.153 368.69 33.439C368.324 32.725 368.141 31.879 368.141 30.901C368.141 29.923 368.324 29.068 368.69 28.336C369.062 27.604 369.584 27.034 370.256 26.626C370.934 26.218 371.732 26.014 372.65 26.014C373.568 26.014 374.363 26.215 375.035 26.617C375.707 27.013 376.226 27.577 376.592 28.309C376.958 29.041 377.141 29.905 377.141 30.901C377.141 31.837 376.961 32.665 376.601 33.385C376.247 34.099 375.734 34.66 375.062 35.068C374.396 35.476 373.589 35.68 372.641 35.68ZM372.65 33.727C373.112 33.727 373.484 33.592 373.766 33.322C374.048 33.052 374.252 32.698 374.378 32.26C374.504 31.816 374.567 31.333 374.567 30.811C374.567 30.319 374.51 29.854 374.396 29.416C374.282 28.978 374.084 28.624 373.802 28.354C373.52 28.084 373.136 27.949 372.65 27.949C372.188 27.949 371.813 28.078 371.525 28.336C371.243 28.588 371.036 28.933 370.904 29.371C370.772 29.803 370.706 30.283 370.706 30.811C370.706 31.297 370.766 31.765 370.886 32.215C371.006 32.659 371.207 33.022 371.489 33.304C371.771 33.586 372.158 33.727 372.65 33.727ZM379.626 35.5V28.021H377.907V26.194H379.626V24.853C379.626 24.103 379.848 23.521 380.292 23.107C380.736 22.693 381.36 22.486 382.164 22.486H384.297L384.315 24.232H383.082C382.752 24.232 382.524 24.316 382.398 24.484C382.272 24.646 382.209 24.916 382.209 25.294V26.194H384.225V28.021H382.263V35.5H379.626ZM388.969 35.5L393.622 22.486H396.403L401.056 35.5H398.437L397.375 32.485H392.686L391.606 35.5H388.969ZM393.28 30.19H396.736L395.017 25.015L393.28 30.19ZM402.92 35.5V22.486H407.708C408.656 22.486 409.505 22.651 410.255 22.981C411.005 23.305 411.596 23.785 412.028 24.421C412.466 25.057 412.685 25.834 412.685 26.752C412.685 27.616 412.493 28.354 412.109 28.966C411.725 29.578 411.185 30.046 410.489 30.37C409.799 30.694 408.986 30.856 408.05 30.856H405.566V35.5H402.92ZM405.539 28.822H407.978C408.638 28.822 409.178 28.612 409.598 28.192C410.018 27.766 410.228 27.241 410.228 26.617C410.228 25.969 410.006 25.456 409.562 25.078C409.118 24.694 408.578 24.502 407.942 24.502H405.539V28.822ZM414.572 35.5V22.486H417.191V35.5H414.572Z" fill="white"/>
<path d="M33.1544 95.12C32.3744 95.12 31.7084 94.942 31.1564 94.586C30.6084 94.23 30.1884 93.718 29.8964 93.05C29.6084 92.382 29.4644 91.576 29.4644 90.632C29.4644 89.692 29.6084 88.892 29.8964 88.232C30.1844 87.572 30.6024 87.07 31.1504 86.726C31.7024 86.378 32.3704 86.204 33.1544 86.204C33.7664 86.204 34.3084 86.332 34.7804 86.588C35.2524 86.84 35.6324 87.178 35.9204 87.602C36.2084 88.026 36.3784 88.492 36.4304 89H35.2484C35.1844 88.66 35.0624 88.352 34.8824 88.076C34.7024 87.8 34.4664 87.58 34.1744 87.416C33.8824 87.252 33.5324 87.17 33.1244 87.17C32.6004 87.17 32.1564 87.294 31.7924 87.542C31.4324 87.786 31.1584 88.164 30.9704 88.676C30.7864 89.188 30.6944 89.844 30.6944 90.644C30.6944 91.852 30.9004 92.74 31.3124 93.308C31.7284 93.872 32.3324 94.154 33.1244 94.154C33.5324 94.154 33.8824 94.068 34.1744 93.896C34.4664 93.724 34.7024 93.494 34.8824 93.206C35.0624 92.918 35.1844 92.606 35.2484 92.27H36.4304C36.3864 92.638 36.2864 92.994 36.1304 93.338C35.9784 93.678 35.7684 93.982 35.5004 94.25C35.2324 94.518 34.9024 94.73 34.5104 94.886C34.1224 95.042 33.6704 95.12 33.1544 95.12ZM40.4684 95.12C39.8964 95.12 39.3964 94.998 38.9684 94.754C38.5444 94.506 38.2144 94.144 37.9784 93.668C37.7424 93.192 37.6244 92.61 37.6244 91.922C37.6244 91.274 37.7344 90.706 37.9544 90.218C38.1744 89.73 38.4964 89.352 38.9204 89.084C39.3444 88.812 39.8624 88.676 40.4744 88.676C41.0464 88.676 41.5424 88.802 41.9624 89.054C42.3824 89.302 42.7084 89.668 42.9404 90.152C43.1764 90.636 43.2944 91.226 43.2944 91.922C43.2944 92.554 43.1864 93.11 42.9704 93.59C42.7544 94.07 42.4364 94.446 42.0164 94.718C41.6004 94.986 41.0844 95.12 40.4684 95.12ZM40.4744 94.244C40.8424 94.244 41.1544 94.15 41.4104 93.962C41.6664 93.774 41.8604 93.504 41.9924 93.152C42.1284 92.8 42.1964 92.382 42.1964 91.898C42.1964 91.454 42.1364 91.056 42.0164 90.704C41.9004 90.348 41.7164 90.066 41.4644 89.858C41.2124 89.65 40.8824 89.546 40.4744 89.546C40.0984 89.546 39.7804 89.64 39.5204 89.828C39.2604 90.012 39.0624 90.28 38.9264 90.632C38.7944 90.984 38.7284 91.406 38.7284 91.898C38.7284 92.334 38.7864 92.73 38.9024 93.086C39.0224 93.442 39.2104 93.724 39.4664 93.932C39.7264 94.14 40.0624 94.244 40.4744 94.244ZM44.7696 95V88.796H45.8436V89.696C45.9436 89.524 46.0816 89.362 46.2576 89.21C46.4376 89.058 46.6536 88.936 46.9056 88.844C47.1616 88.752 47.4556 88.706 47.7876 88.706C48.1796 88.706 48.5396 88.784 48.8676 88.94C49.1996 89.096 49.4636 89.34 49.6596 89.672C49.8596 90 49.9596 90.424 49.9596 90.944V95H48.8496V91.052C48.8496 90.568 48.7216 90.21 48.4656 89.978C48.2136 89.742 47.8856 89.624 47.4816 89.624C47.2016 89.624 46.9396 89.67 46.6956 89.762C46.4516 89.85 46.2536 89.986 46.1016 90.17C45.9496 90.35 45.8736 90.578 45.8736 90.854V95H44.7696ZM54.1913 95.12C53.6313 95.12 53.1353 94.998 52.7033 94.754C52.2753 94.51 51.9393 94.15 51.6953 93.674C51.4553 93.198 51.3353 92.614 51.3353 91.922C51.3353 91.274 51.4453 90.708 51.6653 90.224C51.8893 89.736 52.2133 89.356 52.6373 89.084C53.0653 88.812 53.5833 88.676 54.1913 88.676C54.6353 88.676 55.0333 88.762 55.3853 88.934C55.7413 89.102 56.0333 89.342 56.2613 89.654C56.4893 89.966 56.6293 90.334 56.6813 90.758H55.6973C55.6613 90.542 55.5773 90.344 55.4453 90.164C55.3173 89.984 55.1473 89.84 54.9353 89.732C54.7273 89.624 54.4813 89.57 54.1973 89.57C53.6653 89.57 53.2313 89.762 52.8953 90.146C52.5633 90.53 52.3973 91.118 52.3973 91.91C52.3973 92.626 52.5493 93.2 52.8533 93.632C53.1613 94.06 53.6133 94.274 54.2093 94.274C54.4933 94.274 54.7413 94.22 54.9533 94.112C55.1653 94 55.3353 93.854 55.4633 93.674C55.5913 93.49 55.6733 93.294 55.7093 93.086H56.6753C56.6233 93.502 56.4813 93.862 56.2493 94.166C56.0213 94.47 55.7293 94.706 55.3733 94.874C55.0213 95.038 54.6273 95.12 54.1913 95.12ZM57.9647 95V93.584H59.2847V95H57.9647Z" fill="#6E7880"/>
<rect x="76" y="178.5" width="460" height="1" fill="#4C4C4C"/>
<rect x="76" y="266.5" width="460" height="1" fill="#4C4C4C"/>
<path d="M509.408 387V379.344H506.606V378.324H513.17V379.344H510.524V387H509.408ZM514.403 387V380.796H515.477V387H514.403ZM514.373 379.482V378.33H515.507V379.482H514.373ZM517.408 387V380.796H518.476V381.696C518.648 381.424 518.884 381.186 519.184 380.982C519.484 380.778 519.874 380.676 520.354 380.676C520.578 380.676 520.806 380.714 521.038 380.79C521.274 380.866 521.49 380.98 521.686 381.132C521.882 381.284 522.034 381.47 522.142 381.69C522.334 381.386 522.594 381.142 522.922 380.958C523.25 380.77 523.62 380.676 524.032 380.676C524.248 380.676 524.474 380.71 524.71 380.778C524.946 380.842 525.164 380.958 525.364 381.126C525.568 381.29 525.734 381.52 525.862 381.816C525.99 382.108 526.054 382.484 526.054 382.944V387H524.938V383.052C524.938 382.676 524.878 382.386 524.758 382.182C524.638 381.974 524.48 381.828 524.284 381.744C524.092 381.66 523.886 381.618 523.666 381.618C523.474 381.618 523.27 381.656 523.054 381.732C522.838 381.808 522.654 381.936 522.502 382.116C522.35 382.296 522.274 382.542 522.274 382.854V387H521.17V382.728C521.17 382.484 521.104 382.28 520.972 382.116C520.844 381.952 520.682 381.828 520.486 381.744C520.294 381.66 520.102 381.618 519.91 381.618C519.698 381.618 519.484 381.66 519.268 381.744C519.056 381.828 518.876 381.962 518.728 382.146C518.584 382.326 518.512 382.562 518.512 382.854V387H517.408ZM530.413 387.12C529.837 387.12 529.329 386.994 528.889 386.742C528.449 386.49 528.105 386.128 527.857 385.656C527.609 385.184 527.485 384.618 527.485 383.958C527.485 383.306 527.597 382.734 527.821 382.242C528.045 381.75 528.369 381.366 528.793 381.09C529.221 380.814 529.735 380.676 530.335 380.676C530.919 380.676 531.413 380.802 531.817 381.054C532.221 381.306 532.527 381.662 532.735 382.122C532.947 382.578 533.053 383.12 533.053 383.748V384.156H528.607C528.607 384.548 528.671 384.904 528.799 385.224C528.931 385.54 529.129 385.792 529.393 385.98C529.657 386.168 529.991 386.262 530.395 386.262C530.791 386.262 531.131 386.17 531.415 385.986C531.703 385.802 531.887 385.536 531.967 385.188H533.011C532.939 385.608 532.771 385.962 532.507 386.25C532.247 386.538 531.933 386.756 531.565 386.904C531.201 387.048 530.817 387.12 530.413 387.12ZM528.613 383.406H531.985C531.985 383.05 531.925 382.73 531.805 382.446C531.685 382.158 531.501 381.932 531.253 381.768C531.009 381.6 530.701 381.516 530.329 381.516C529.941 381.516 529.619 381.61 529.363 381.798C529.107 381.982 528.917 382.22 528.793 382.512C528.669 382.8 528.609 383.098 528.613 383.406Z" fill="#6E7880"/>
<mask id="path-8-inside-1_1_3090" fill="white">
<path d="M76 91H536V360H76V91Z"/>
</mask>
<path d="M76 360H75V361H76V360ZM536 360V359H76V360V361H536V360ZM76 360H77V91H76H75V360H76Z" fill="#4C4C4C" mask="url(#path-8-inside-1_1_3090)"/>
<g clip-path="url(#clip0_1_3090)">
<path d="M77.5 348.5C107.5 268.5 137.5 188.5 167.5 168.5C197.5 158.5 222.5 168.5 237.5 183.5C252.5 213.5 262.5 253.5 272.5 293.5C287.5 333.5 302.5 356.5 317.5 358.5H535.5" stroke="#76CAFF" stroke-width="4" stroke-linecap="round"/>
</g>
<path d="M77 354.136C115.296 336.231 151.744 319.188 196.614 284.289C241.543 249.344 306.463 209.391 371.387 179.423C435.73 154.678 495.126 139.759 535 135.608" stroke="#12CA98" stroke-width="4" stroke-linecap="round"/>
<line x1="76" y1="128" x2="536" y2="128" stroke="#CC47AE" stroke-width="2" stroke-dasharray="4 4"/>
<g clip-path="url(#clip1_1_3090)">
<rect x="28" y="425" width="12" height="2" rx="1" fill="#76CAFF" stroke="#76CAFF"/>
<path d="M44.581 431L48.242 420.878H49.705L53.366 431H52.043L51.049 428.228H46.898L45.897 431H44.581ZM47.241 427.038H50.692L48.97 422.145L47.241 427.038ZM55.2065 431V420.878H58.6295C59.3528 420.878 59.9968 420.999 60.5615 421.242C61.1261 421.485 61.5695 421.844 61.8915 422.32C62.2181 422.796 62.3815 423.382 62.3815 424.077C62.3815 424.749 62.2298 425.323 61.9265 425.799C61.6278 426.275 61.2101 426.637 60.6735 426.884C60.1368 427.131 59.5138 427.255 58.8045 427.255H56.5365V431H55.2065ZM56.5295 426.163H58.7765C59.4718 426.163 60.0365 425.969 60.4705 425.582C60.9045 425.195 61.1215 424.667 61.1215 424C61.1215 423.328 60.8975 422.819 60.4495 422.474C60.0015 422.129 59.4228 421.956 58.7135 421.956H56.5295V426.163ZM65.6115 431.091C65.2195 431.091 64.9022 431.037 64.6595 430.93C64.4215 430.823 64.2372 430.678 64.1065 430.496C63.9805 430.314 63.8942 430.106 63.8475 429.873C63.8055 429.635 63.7845 429.39 63.7845 429.138V420.598H65.0585V429.012C65.0585 429.376 65.1285 429.649 65.2685 429.831C65.4132 430.013 65.6138 430.113 65.8705 430.132L66.2625 430.139V430.979C66.1552 431.012 66.0432 431.037 65.9265 431.056C65.8098 431.079 65.7048 431.091 65.6115 431.091ZM74.0074 431.14C73.34 431.14 72.7567 430.998 72.2574 430.713C71.7627 430.424 71.3777 430.001 71.1024 429.446C70.827 428.891 70.6894 428.212 70.6894 427.409C70.6894 426.653 70.8177 425.99 71.0744 425.421C71.331 424.852 71.7067 424.411 72.2014 424.098C72.696 423.781 73.3004 423.622 74.0144 423.622C74.6817 423.622 75.2604 423.769 75.7504 424.063C76.2404 424.352 76.6207 424.779 76.8914 425.344C77.1667 425.909 77.3044 426.597 77.3044 427.409C77.3044 428.146 77.1784 428.795 76.9264 429.355C76.6744 429.915 76.3034 430.354 75.8134 430.671C75.328 430.984 74.726 431.14 74.0074 431.14ZM74.0144 430.118C74.4437 430.118 74.8077 430.008 75.1064 429.789C75.405 429.57 75.6314 429.255 75.7854 428.844C75.944 428.433 76.0234 427.946 76.0234 427.381C76.0234 426.863 75.9534 426.399 75.8134 425.988C75.678 425.573 75.4634 425.244 75.1694 425.001C74.8754 424.758 74.4904 424.637 74.0144 424.637C73.5757 424.637 73.2047 424.747 72.9014 424.966C72.598 425.181 72.367 425.493 72.2084 425.904C72.0544 426.315 71.9774 426.807 71.9774 427.381C71.9774 427.89 72.045 428.352 72.1804 428.767C72.3204 429.182 72.5397 429.511 72.8384 429.754C73.1417 429.997 73.5337 430.118 74.0144 430.118ZM78.9554 431V423.762H80.2084V424.812C80.325 424.611 80.486 424.422 80.6914 424.245C80.9014 424.068 81.1534 423.925 81.4474 423.818C81.746 423.711 82.089 423.657 82.4764 423.657C82.9337 423.657 83.3537 423.748 83.7364 423.93C84.1237 424.112 84.4317 424.397 84.6604 424.784C84.8937 425.167 85.0104 425.661 85.0104 426.268V431H83.7154V426.394C83.7154 425.829 83.566 425.412 83.2674 425.141C82.9734 424.866 82.5907 424.728 82.1194 424.728C81.7927 424.728 81.487 424.782 81.2024 424.889C80.9177 424.992 80.6867 425.15 80.5094 425.365C80.332 425.575 80.2434 425.841 80.2434 426.163V431H78.9554ZM88.7925 431.091C88.4005 431.091 88.0831 431.037 87.8405 430.93C87.6025 430.823 87.4181 430.678 87.2875 430.496C87.1615 430.314 87.0751 430.106 87.0285 429.873C86.9865 429.635 86.9655 429.39 86.9655 429.138V420.598H88.2395V429.012C88.2395 429.376 88.3095 429.649 88.4495 429.831C88.5941 430.013 88.7948 430.113 89.0515 430.132L89.4435 430.139V430.979C89.3361 431.012 89.2241 431.037 89.1075 431.056C88.9908 431.079 88.8858 431.091 88.7925 431.091ZM91.5813 433.31C91.1566 433.31 90.865 433.28 90.7063 433.219C90.5476 433.158 90.4683 433.128 90.4683 433.128V432.288L91.2103 432.302C91.4763 432.311 91.698 432.293 91.8753 432.246C92.0526 432.199 92.195 432.136 92.3023 432.057C92.4096 431.978 92.4913 431.889 92.5473 431.791C92.608 431.693 92.657 431.6 92.6943 431.511L92.9463 430.825L90.1183 423.762H91.4273L93.5623 429.348L95.6833 423.762H96.9503L93.9053 431.546C93.714 432.003 93.5016 432.36 93.2683 432.617C93.0396 432.874 92.783 433.053 92.4983 433.156C92.2183 433.259 91.9126 433.31 91.5813 433.31ZM101.597 431V423.762H102.85V431H101.597ZM101.562 422.229V420.885H102.885V422.229H101.562ZM105.033 431V423.762H106.286V424.812C106.403 424.611 106.564 424.422 106.769 424.245C106.979 424.068 107.231 423.925 107.525 423.818C107.824 423.711 108.167 423.657 108.554 423.657C109.011 423.657 109.431 423.748 109.814 423.93C110.201 424.112 110.509 424.397 110.738 424.784C110.971 425.167 111.088 425.661 111.088 426.268V431H109.793V426.394C109.793 425.829 109.644 425.412 109.345 425.141C109.051 424.866 108.668 424.728 108.197 424.728C107.87 424.728 107.565 424.782 107.28 424.889C106.995 424.992 106.764 425.15 106.587 425.365C106.41 425.575 106.321 425.841 106.321 426.163V431H105.033ZM112.56 433.324C112.164 433.324 111.914 433.296 111.811 433.24C111.704 433.184 111.65 433.156 111.65 433.156V432.295L112.364 432.26C112.691 432.237 112.92 432.15 113.05 432.001C113.181 431.852 113.246 431.611 113.246 431.28V423.762H114.541V431.322C114.541 431.999 114.394 432.5 114.1 432.827C113.811 433.158 113.298 433.324 112.56 433.324ZM113.204 422.229V420.885H114.576V422.229H113.204ZM119.71 431.14C119.038 431.14 118.445 430.993 117.932 430.699C117.419 430.405 117.017 429.983 116.728 429.432C116.439 428.881 116.294 428.221 116.294 427.451C116.294 426.69 116.425 426.023 116.686 425.449C116.947 424.875 117.325 424.427 117.82 424.105C118.319 423.783 118.919 423.622 119.619 423.622C120.3 423.622 120.877 423.769 121.348 424.063C121.819 424.357 122.176 424.772 122.419 425.309C122.666 425.841 122.79 426.473 122.79 427.206V427.682H117.603C117.603 428.139 117.678 428.555 117.827 428.928C117.981 429.297 118.212 429.591 118.52 429.81C118.828 430.029 119.218 430.139 119.689 430.139C120.151 430.139 120.548 430.032 120.879 429.817C121.215 429.602 121.43 429.292 121.523 428.886H122.741C122.657 429.376 122.461 429.789 122.153 430.125C121.85 430.461 121.483 430.715 121.054 430.888C120.629 431.056 120.181 431.14 119.71 431.14ZM117.61 426.807H121.544C121.544 426.392 121.474 426.018 121.334 425.687C121.194 425.351 120.979 425.087 120.69 424.896C120.405 424.7 120.046 424.602 119.612 424.602C119.159 424.602 118.784 424.712 118.485 424.931C118.186 425.146 117.965 425.423 117.82 425.764C117.675 426.1 117.605 426.448 117.61 426.807ZM127.423 431.14C126.769 431.14 126.191 430.998 125.687 430.713C125.187 430.428 124.795 430.008 124.511 429.453C124.231 428.898 124.091 428.216 124.091 427.409C124.091 426.653 124.219 425.993 124.476 425.428C124.737 424.859 125.115 424.415 125.61 424.098C126.109 423.781 126.713 423.622 127.423 423.622C127.941 423.622 128.405 423.722 128.816 423.923C129.231 424.119 129.572 424.399 129.838 424.763C130.104 425.127 130.267 425.556 130.328 426.051H129.18C129.138 425.799 129.04 425.568 128.886 425.358C128.736 425.148 128.538 424.98 128.291 424.854C128.048 424.728 127.761 424.665 127.43 424.665C126.809 424.665 126.303 424.889 125.911 425.337C125.523 425.785 125.33 426.471 125.33 427.395C125.33 428.23 125.507 428.9 125.862 429.404C126.221 429.903 126.748 430.153 127.444 430.153C127.775 430.153 128.064 430.09 128.312 429.964C128.559 429.833 128.757 429.663 128.907 429.453C129.056 429.238 129.152 429.01 129.194 428.767H130.321C130.26 429.252 130.094 429.672 129.824 430.027C129.558 430.382 129.217 430.657 128.802 430.853C128.391 431.044 127.931 431.14 127.423 431.14ZM134.381 431.035C133.881 431.035 133.494 430.967 133.219 430.832C132.943 430.697 132.75 430.496 132.638 430.23C132.53 429.964 132.477 429.637 132.477 429.25V424.707H131.301V423.762H132.512L132.827 421.655H133.779V423.755H135.41V424.707H133.779V429.208C133.779 429.465 133.804 429.654 133.856 429.775C133.912 429.892 134.003 429.966 134.129 429.999C134.255 430.032 134.432 430.048 134.661 430.048H135.452V430.916C135.363 430.949 135.228 430.977 135.046 431C134.868 431.023 134.647 431.035 134.381 431.035ZM137.134 431V423.762H138.387V431H137.134ZM137.099 422.229V420.885H138.422V422.229H137.099ZM143.386 431.14C142.719 431.14 142.135 430.998 141.636 430.713C141.141 430.424 140.756 430.001 140.481 429.446C140.206 428.891 140.068 428.212 140.068 427.409C140.068 426.653 140.196 425.99 140.453 425.421C140.71 424.852 141.085 424.411 141.58 424.098C142.075 423.781 142.679 423.622 143.393 423.622C144.06 423.622 144.639 423.769 145.129 424.063C145.619 424.352 145.999 424.779 146.27 425.344C146.545 425.909 146.683 426.597 146.683 427.409C146.683 428.146 146.557 428.795 146.305 429.355C146.053 429.915 145.682 430.354 145.192 430.671C144.707 430.984 144.105 431.14 143.386 431.14ZM143.393 430.118C143.822 430.118 144.186 430.008 144.485 429.789C144.784 429.57 145.01 429.255 145.164 428.844C145.323 428.433 145.402 427.946 145.402 427.381C145.402 426.863 145.332 426.399 145.192 425.988C145.057 425.573 144.842 425.244 144.548 425.001C144.254 424.758 143.869 424.637 143.393 424.637C142.954 424.637 142.583 424.747 142.28 424.966C141.977 425.181 141.746 425.493 141.587 425.904C141.433 426.315 141.356 426.807 141.356 427.381C141.356 427.89 141.424 428.352 141.559 428.767C141.699 429.182 141.918 429.511 142.217 429.754C142.52 429.997 142.912 430.118 143.393 430.118ZM148.334 431V423.762H149.587V424.812C149.704 424.611 149.865 424.422 150.07 424.245C150.28 424.068 150.532 423.925 150.826 423.818C151.125 423.711 151.468 423.657 151.855 423.657C152.312 423.657 152.732 423.748 153.115 423.93C153.502 424.112 153.81 424.397 154.039 424.784C154.272 425.167 154.389 425.661 154.389 426.268V431H153.094V426.394C153.094 425.829 152.945 425.412 152.646 425.141C152.352 424.866 151.969 424.728 151.498 424.728C151.171 424.728 150.866 424.782 150.581 424.889C150.296 424.992 150.065 425.15 149.888 425.365C149.711 425.575 149.622 425.841 149.622 426.163V431H148.334Z" fill="white"/>
<rect x="172" y="425" width="12" height="2" rx="1" fill="#12CA98" stroke="#12CA98"/>
<path d="M193.054 431.14C192.167 431.14 191.402 430.937 190.758 430.531C190.114 430.12 189.619 429.53 189.274 428.76C188.929 427.99 188.756 427.059 188.756 425.967C188.756 424.866 188.931 423.925 189.281 423.146C189.636 422.367 190.14 421.772 190.793 421.361C191.446 420.946 192.219 420.738 193.11 420.738C193.619 420.738 194.097 420.827 194.545 421.004C194.993 421.181 195.39 421.424 195.735 421.732C196.08 422.035 196.356 422.383 196.561 422.775C196.771 423.167 196.89 423.575 196.918 424H195.532C195.467 423.627 195.322 423.279 195.098 422.957C194.874 422.635 194.589 422.376 194.244 422.18C193.903 421.984 193.518 421.886 193.089 421.886C192.506 421.886 191.992 422.031 191.549 422.32C191.11 422.605 190.767 423.046 190.52 423.643C190.277 424.24 190.156 425.006 190.156 425.939C190.156 426.658 190.231 427.274 190.38 427.787C190.529 428.3 190.737 428.718 191.003 429.04C191.274 429.357 191.589 429.593 191.948 429.747C192.312 429.896 192.704 429.971 193.124 429.971C193.549 429.971 193.917 429.896 194.23 429.747C194.547 429.598 194.811 429.406 195.021 429.173C195.231 428.935 195.392 428.681 195.504 428.41C195.621 428.135 195.684 427.871 195.693 427.619L195.735 426.723H193.271V425.771L197.079 425.778V431H196.106V429.46C195.929 429.749 195.705 430.022 195.434 430.279C195.163 430.536 194.832 430.743 194.44 430.902C194.053 431.061 193.591 431.14 193.054 431.14ZM202.328 431.14C201.656 431.14 201.063 430.993 200.55 430.699C200.036 430.405 199.635 429.983 199.346 429.432C199.056 428.881 198.912 428.221 198.912 427.451C198.912 426.69 199.042 426.023 199.304 425.449C199.565 424.875 199.943 424.427 200.438 424.105C200.937 423.783 201.537 423.622 202.237 423.622C202.918 423.622 203.494 423.769 203.966 424.063C204.437 424.357 204.794 424.772 205.037 425.309C205.284 425.841 205.408 426.473 205.408 427.206V427.682H200.221C200.221 428.139 200.295 428.555 200.445 428.928C200.599 429.297 200.83 429.591 201.138 429.81C201.446 430.029 201.835 430.139 202.307 430.139C202.769 430.139 203.165 430.032 203.497 429.817C203.833 429.602 204.047 429.292 204.141 428.886H205.359C205.275 429.376 205.079 429.789 204.771 430.125C204.467 430.461 204.101 430.715 203.672 430.888C203.247 431.056 202.799 431.14 202.328 431.14ZM200.228 426.807H204.162C204.162 426.392 204.092 426.018 203.952 425.687C203.812 425.351 203.597 425.087 203.308 424.896C203.023 424.7 202.664 424.602 202.23 424.602C201.777 424.602 201.401 424.712 201.103 424.931C200.804 425.146 200.582 425.423 200.438 425.764C200.293 426.1 200.223 426.448 200.228 426.807ZM208.955 431.091C208.563 431.091 208.246 431.037 208.003 430.93C207.765 430.823 207.581 430.678 207.45 430.496C207.324 430.314 207.238 430.106 207.191 429.873C207.149 429.635 207.128 429.39 207.128 429.138V420.598H208.402V429.012C208.402 429.376 208.472 429.649 208.612 429.831C208.757 430.013 208.958 430.113 209.214 430.132L209.606 430.139V430.979C209.499 431.012 209.387 431.037 209.27 431.056C209.154 431.079 209.049 431.091 208.955 431.091ZM217.221 431.07C216.563 431.07 216.005 430.96 215.548 430.741C215.095 430.517 214.752 430.209 214.519 429.817C214.286 429.425 214.169 428.972 214.169 428.459C214.169 428.016 214.255 427.617 214.428 427.262C214.605 426.903 214.871 426.571 215.226 426.268C215.585 425.965 216.033 425.671 216.57 425.386C216.309 425.106 216.082 424.838 215.891 424.581C215.704 424.32 215.56 424.058 215.457 423.797C215.359 423.531 215.31 423.249 215.31 422.95C215.31 422.53 215.42 422.152 215.639 421.816C215.863 421.48 216.171 421.214 216.563 421.018C216.955 420.822 217.408 420.724 217.921 420.724C218.416 420.724 218.873 420.813 219.293 420.99C219.713 421.167 220.051 421.417 220.308 421.739C220.565 422.061 220.693 422.441 220.693 422.88C220.693 423.057 220.656 423.251 220.581 423.461C220.511 423.671 220.39 423.895 220.217 424.133C220.044 424.366 219.802 424.609 219.489 424.861C219.176 425.113 218.78 425.367 218.299 425.624L220.518 428.221C220.607 428.095 220.714 427.906 220.84 427.654C220.971 427.397 221.092 427.092 221.204 426.737C221.316 426.382 221.384 425.986 221.407 425.547H222.681C222.616 426.028 222.506 426.469 222.352 426.87C222.198 427.271 222.016 427.647 221.806 427.997C221.601 428.347 221.386 428.681 221.162 428.998L222.87 431H221.358L220.378 429.873C219.865 430.293 219.34 430.599 218.803 430.79C218.271 430.977 217.744 431.07 217.221 431.07ZM217.501 430.034C217.893 430.034 218.287 429.948 218.684 429.775C219.081 429.598 219.428 429.364 219.727 429.075L217.228 426.17C216.743 426.436 216.344 426.76 216.031 427.143C215.718 427.521 215.574 427.948 215.597 428.424C215.616 428.755 215.714 429.042 215.891 429.285C216.068 429.523 216.297 429.707 216.577 429.838C216.862 429.969 217.17 430.034 217.501 430.034ZM217.718 424.903C218.208 424.618 218.581 424.364 218.838 424.14C219.095 423.916 219.27 423.706 219.363 423.51C219.461 423.309 219.51 423.109 219.51 422.908C219.51 422.595 219.433 422.343 219.279 422.152C219.13 421.961 218.936 421.823 218.698 421.739C218.465 421.65 218.222 421.608 217.97 421.613C217.527 421.618 217.188 421.746 216.955 421.998C216.726 422.245 216.612 422.537 216.612 422.873C216.612 423.102 216.661 423.33 216.759 423.559C216.857 423.783 216.974 423.988 217.109 424.175C217.244 424.362 217.366 424.513 217.473 424.63L217.718 424.903ZM227.317 431L230.978 420.878H232.441L236.102 431H234.779L233.785 428.228H229.634L228.633 431H227.317ZM229.977 427.038H233.428L231.706 422.145L229.977 427.038ZM237.943 431V420.878H241.366C242.089 420.878 242.733 420.999 243.298 421.242C243.862 421.485 244.306 421.844 244.628 422.32C244.954 422.796 245.118 423.382 245.118 424.077C245.118 424.749 244.966 425.323 244.663 425.799C244.364 426.275 243.946 426.637 243.41 426.884C242.873 427.131 242.25 427.255 241.541 427.255H239.273V431H237.943ZM239.266 426.163H241.513C242.208 426.163 242.773 425.969 243.207 425.582C243.641 425.195 243.858 424.667 243.858 424C243.858 423.328 243.634 422.819 243.186 422.474C242.738 422.129 242.159 421.956 241.45 421.956H239.266V426.163ZM246.787 431V420.878H248.082V431H246.787ZM253.785 431V423.762H255.038V431H253.785ZM253.75 422.229V420.885H255.073V422.229H253.75ZM257.221 431V423.762H258.474V424.812C258.591 424.611 258.752 424.422 258.957 424.245C259.167 424.068 259.419 423.925 259.713 423.818C260.012 423.711 260.355 423.657 260.742 423.657C261.199 423.657 261.619 423.748 262.002 423.93C262.389 424.112 262.697 424.397 262.926 424.784C263.159 425.167 263.276 425.661 263.276 426.268V431H261.981V426.394C261.981 425.829 261.832 425.412 261.533 425.141C261.239 424.866 260.856 424.728 260.385 424.728C260.058 424.728 259.753 424.782 259.468 424.889C259.183 424.992 258.952 425.15 258.775 425.365C258.598 425.575 258.509 425.841 258.509 426.163V431H257.221ZM264.748 433.324C264.351 433.324 264.102 433.296 263.999 433.24C263.892 433.184 263.838 433.156 263.838 433.156V432.295L264.552 432.26C264.879 432.237 265.107 432.15 265.238 432.001C265.369 431.852 265.434 431.611 265.434 431.28V423.762H266.729V431.322C266.729 431.999 266.582 432.5 266.288 432.827C265.999 433.158 265.485 433.324 264.748 433.324ZM265.392 422.229V420.885H266.764V422.229H265.392ZM271.898 431.14C271.226 431.14 270.633 430.993 270.12 430.699C269.606 430.405 269.205 429.983 268.916 429.432C268.626 428.881 268.482 428.221 268.482 427.451C268.482 426.69 268.612 426.023 268.874 425.449C269.135 424.875 269.513 424.427 270.008 424.105C270.507 423.783 271.107 423.622 271.807 423.622C272.488 423.622 273.064 423.769 273.536 424.063C274.007 424.357 274.364 424.772 274.607 425.309C274.854 425.841 274.978 426.473 274.978 427.206V427.682H269.791C269.791 428.139 269.865 428.555 270.015 428.928C270.169 429.297 270.4 429.591 270.708 429.81C271.016 430.029 271.405 430.139 271.877 430.139C272.339 430.139 272.735 430.032 273.067 429.817C273.403 429.602 273.617 429.292 273.711 428.886H274.929C274.845 429.376 274.649 429.789 274.341 430.125C274.037 430.461 273.671 430.715 273.242 430.888C272.817 431.056 272.369 431.14 271.898 431.14ZM269.798 426.807H273.732C273.732 426.392 273.662 426.018 273.522 425.687C273.382 425.351 273.167 425.087 272.878 424.896C272.593 424.7 272.234 424.602 271.8 424.602C271.347 424.602 270.971 424.712 270.673 424.931C270.374 425.146 270.152 425.423 270.008 425.764C269.863 426.1 269.793 426.448 269.798 426.807ZM279.61 431.14C278.957 431.14 278.378 430.998 277.874 430.713C277.375 430.428 276.983 430.008 276.698 429.453C276.418 428.898 276.278 428.216 276.278 427.409C276.278 426.653 276.407 425.993 276.663 425.428C276.925 424.859 277.303 424.415 277.797 424.098C278.297 423.781 278.901 423.622 279.61 423.622C280.128 423.622 280.593 423.722 281.003 423.923C281.419 424.119 281.759 424.399 282.025 424.763C282.291 425.127 282.455 425.556 282.515 426.051H281.367C281.325 425.799 281.227 425.568 281.073 425.358C280.924 425.148 280.726 424.98 280.478 424.854C280.236 424.728 279.949 424.665 279.617 424.665C278.997 424.665 278.49 424.889 278.098 425.337C277.711 425.785 277.517 426.471 277.517 427.395C277.517 428.23 277.695 428.9 278.049 429.404C278.409 429.903 278.936 430.153 279.631 430.153C279.963 430.153 280.252 430.09 280.499 429.964C280.747 429.833 280.945 429.663 281.094 429.453C281.244 429.238 281.339 429.01 281.381 428.767H282.508C282.448 429.252 282.282 429.672 282.011 430.027C281.745 430.382 281.405 430.657 280.989 430.853C280.579 431.044 280.119 431.14 279.61 431.14ZM286.569 431.035C286.069 431.035 285.682 430.967 285.407 430.832C285.131 430.697 284.938 430.496 284.826 430.23C284.718 429.964 284.665 429.637 284.665 429.25V424.707H283.489V423.762H284.7L285.015 421.655H285.967V423.755H287.598V424.707H285.967V429.208C285.967 429.465 285.992 429.654 286.044 429.775C286.1 429.892 286.191 429.966 286.317 429.999C286.443 430.032 286.62 430.048 286.849 430.048H287.64V430.916C287.551 430.949 287.416 430.977 287.234 431C287.056 431.023 286.835 431.035 286.569 431.035ZM289.322 431V423.762H290.575V431H289.322ZM289.287 422.229V420.885H290.61V422.229H289.287ZM295.574 431.14C294.907 431.14 294.323 430.998 293.824 430.713C293.329 430.424 292.944 430.001 292.669 429.446C292.394 428.891 292.256 428.212 292.256 427.409C292.256 426.653 292.384 425.99 292.641 425.421C292.898 424.852 293.273 424.411 293.768 424.098C294.263 423.781 294.867 423.622 295.581 423.622C296.248 423.622 296.827 423.769 297.317 424.063C297.807 424.352 298.187 424.779 298.458 425.344C298.733 425.909 298.871 426.597 298.871 427.409C298.871 428.146 298.745 428.795 298.493 429.355C298.241 429.915 297.87 430.354 297.38 430.671C296.895 430.984 296.293 431.14 295.574 431.14ZM295.581 430.118C296.01 430.118 296.374 430.008 296.673 429.789C296.972 429.57 297.198 429.255 297.352 428.844C297.511 428.433 297.59 427.946 297.59 427.381C297.59 426.863 297.52 426.399 297.38 425.988C297.245 425.573 297.03 425.244 296.736 425.001C296.442 424.758 296.057 424.637 295.581 424.637C295.142 424.637 294.771 424.747 294.468 424.966C294.165 425.181 293.934 425.493 293.775 425.904C293.621 426.315 293.544 426.807 293.544 427.381C293.544 427.89 293.612 428.352 293.747 428.767C293.887 429.182 294.106 429.511 294.405 429.754C294.708 429.997 295.1 430.118 295.581 430.118ZM300.522 431V423.762H301.775V424.812C301.892 424.611 302.053 424.422 302.258 424.245C302.468 424.068 302.72 423.925 303.014 423.818C303.313 423.711 303.656 423.657 304.043 423.657C304.5 423.657 304.92 423.748 305.303 423.93C305.69 424.112 305.998 424.397 306.227 424.784C306.46 425.167 306.577 425.661 306.577 426.268V431H305.282V426.394C305.282 425.829 305.133 425.412 304.834 425.141C304.54 424.866 304.157 424.728 303.686 424.728C303.359 424.728 303.054 424.782 302.769 424.889C302.484 424.992 302.253 425.15 302.076 425.365C301.899 425.575 301.81 425.841 301.81 426.163V431H300.522Z" fill="white"/>
<rect x="324" y="425" width="5" height="2" rx="1" fill="#CC47AE" stroke="#CC47AE"/>
<rect x="331" y="425" width="5" height="2" rx="1" fill="#CC47AE" stroke="#CC47AE"/>
<path d="M341.337 431V420.878H343.129L346.181 429.236L349.275 420.878H351.06V431H349.723V422.817L346.79 431H345.579L342.667 422.894V431H341.337ZM355.39 431.14C354.919 431.14 354.504 431.058 354.144 430.895C353.79 430.727 353.51 430.487 353.304 430.174C353.104 429.861 353.003 429.483 353.003 429.04C353.003 428.237 353.283 427.64 353.843 427.248C354.403 426.856 355.302 426.646 356.538 426.618L357.826 426.583V426.016C357.826 425.573 357.693 425.223 357.427 424.966C357.161 424.705 356.751 424.574 356.195 424.574C355.78 424.579 355.414 424.677 355.096 424.868C354.779 425.059 354.576 425.372 354.487 425.806H353.346C353.374 425.335 353.505 424.938 353.738 424.616C353.976 424.289 354.31 424.042 354.739 423.874C355.169 423.706 355.675 423.622 356.258 423.622C356.888 423.622 357.411 423.711 357.826 423.888C358.246 424.065 358.559 424.327 358.764 424.672C358.974 425.017 359.079 425.442 359.079 425.946V431H357.973L357.875 429.642C357.6 430.207 357.245 430.599 356.811 430.818C356.382 431.033 355.908 431.14 355.39 431.14ZM355.775 430.209C356.023 430.209 356.265 430.165 356.503 430.076C356.746 429.987 356.965 429.868 357.161 429.719C357.362 429.565 357.523 429.395 357.644 429.208C357.766 429.017 357.826 428.821 357.826 428.62V427.381L356.755 427.402C356.2 427.411 355.738 427.467 355.369 427.57C355.001 427.673 354.723 427.834 354.536 428.053C354.35 428.272 354.256 428.559 354.256 428.914C354.256 429.32 354.399 429.637 354.683 429.866C354.968 430.095 355.332 430.209 355.775 430.209ZM360.248 431L363.034 427.241L360.472 423.762H361.879L363.762 426.303L365.645 423.762H367.059L364.483 427.241L367.269 431H365.862L363.755 428.165L361.662 431H360.248ZM372.311 431V420.878H376.231C376.959 420.878 377.568 420.99 378.058 421.214C378.548 421.433 378.914 421.751 379.157 422.166C379.4 422.577 379.521 423.069 379.521 423.643C379.521 424.194 379.423 424.651 379.227 425.015C379.036 425.379 378.791 425.673 378.492 425.897C378.193 426.116 377.883 426.287 377.561 426.408L379.549 431H378.177L376.329 426.639H373.606V431H372.311ZM373.606 425.568H375.811C376.572 425.568 377.16 425.414 377.575 425.106C377.99 424.793 378.198 424.331 378.198 423.72C378.198 423.123 378.011 422.677 377.638 422.383C377.269 422.084 376.763 421.935 376.119 421.935H373.606V425.568ZM384.276 431.14C383.604 431.14 383.011 430.993 382.498 430.699C381.985 430.405 381.583 429.983 381.294 429.432C381.005 428.881 380.86 428.221 380.86 427.451C380.86 426.69 380.991 426.023 381.252 425.449C381.513 424.875 381.891 424.427 382.386 424.105C382.885 423.783 383.485 423.622 384.185 423.622C384.866 423.622 385.443 423.769 385.914 424.063C386.385 424.357 386.742 424.772 386.985 425.309C387.232 425.841 387.356 426.473 387.356 427.206V427.682H382.169C382.169 428.139 382.244 428.555 382.393 428.928C382.547 429.297 382.778 429.591 383.086 429.81C383.394 430.029 383.784 430.139 384.255 430.139C384.717 430.139 385.114 430.032 385.445 429.817C385.781 429.602 385.996 429.292 386.089 428.886H387.307C387.223 429.376 387.027 429.789 386.719 430.125C386.416 430.461 386.049 430.715 385.62 430.888C385.195 431.056 384.747 431.14 384.276 431.14ZM382.176 426.807H386.11C386.11 426.392 386.04 426.018 385.9 425.687C385.76 425.351 385.545 425.087 385.256 424.896C384.971 424.7 384.612 424.602 384.178 424.602C383.725 424.602 383.35 424.712 383.051 424.931C382.752 425.146 382.531 425.423 382.386 425.764C382.241 426.1 382.171 426.448 382.176 426.807ZM390.904 431.091C390.512 431.091 390.194 431.037 389.952 430.93C389.714 430.823 389.529 430.678 389.399 430.496C389.273 430.314 389.186 430.106 389.14 429.873C389.098 429.635 389.077 429.39 389.077 429.138V420.598H390.351V429.012C390.351 429.376 390.421 429.649 390.561 429.831C390.705 430.013 390.906 430.113 391.163 430.132L391.555 430.139V430.979C391.447 431.012 391.335 431.037 391.219 431.056C391.102 431.079 390.997 431.091 390.904 431.091ZM395.962 431.14C395.29 431.14 394.698 430.993 394.184 430.699C393.671 430.405 393.27 429.983 392.98 429.432C392.691 428.881 392.546 428.221 392.546 427.451C392.546 426.69 392.677 426.023 392.938 425.449C393.2 424.875 393.578 424.427 394.072 424.105C394.572 423.783 395.171 423.622 395.871 423.622C396.553 423.622 397.129 423.769 397.6 424.063C398.072 424.357 398.429 424.772 398.671 425.309C398.919 425.841 399.042 426.473 399.042 427.206V427.682H393.855C393.855 428.139 393.93 428.555 394.079 428.928C394.233 429.297 394.464 429.591 394.772 429.81C395.08 430.029 395.47 430.139 395.941 430.139C396.403 430.139 396.8 430.032 397.131 429.817C397.467 429.602 397.682 429.292 397.775 428.886H398.993C398.909 429.376 398.713 429.789 398.405 430.125C398.102 430.461 397.736 430.715 397.306 430.888C396.882 431.056 396.434 431.14 395.962 431.14ZM393.862 426.807H397.796C397.796 426.392 397.726 426.018 397.586 425.687C397.446 425.351 397.232 425.087 396.942 424.896C396.658 424.7 396.298 424.602 395.864 424.602C395.412 424.602 395.036 424.712 394.737 424.931C394.439 425.146 394.217 425.423 394.072 425.764C393.928 426.1 393.858 426.448 393.862 426.807ZM402.711 431.14C402.24 431.14 401.824 431.058 401.465 430.895C401.11 430.727 400.83 430.487 400.625 430.174C400.424 429.861 400.324 429.483 400.324 429.04C400.324 428.237 400.604 427.64 401.164 427.248C401.724 426.856 402.622 426.646 403.859 426.618L405.147 426.583V426.016C405.147 425.573 405.014 425.223 404.748 424.966C404.482 424.705 404.071 424.574 403.516 424.574C403.101 424.579 402.734 424.677 402.417 424.868C402.1 425.059 401.897 425.372 401.808 425.806H400.667C400.695 425.335 400.826 424.938 401.059 424.616C401.297 424.289 401.631 424.042 402.06 423.874C402.489 423.706 402.996 423.622 403.579 423.622C404.209 423.622 404.732 423.711 405.147 423.888C405.567 424.065 405.88 424.327 406.085 424.672C406.295 425.017 406.4 425.442 406.4 425.946V431H405.294L405.196 429.642C404.921 430.207 404.566 430.599 404.132 430.818C403.703 431.033 403.229 431.14 402.711 431.14ZM403.096 430.209C403.343 430.209 403.586 430.165 403.824 430.076C404.067 429.987 404.286 429.868 404.482 429.719C404.683 429.565 404.844 429.395 404.965 429.208C405.086 429.017 405.147 428.821 405.147 428.62V427.381L404.076 427.402C403.521 427.411 403.059 427.467 402.69 427.57C402.321 427.673 402.044 427.834 401.857 428.053C401.67 428.272 401.577 428.559 401.577 428.914C401.577 429.32 401.719 429.637 402.004 429.866C402.289 430.095 402.653 430.209 403.096 430.209ZM410.885 431.14C410.381 431.14 409.912 431.063 409.478 430.909C409.049 430.75 408.692 430.505 408.407 430.174C408.122 429.838 407.945 429.411 407.875 428.893H409.051C409.112 429.178 409.228 429.416 409.401 429.607C409.574 429.794 409.786 429.936 410.038 430.034C410.295 430.127 410.575 430.174 410.878 430.174C411.368 430.174 411.762 430.083 412.061 429.901C412.36 429.719 412.509 429.439 412.509 429.061C412.509 428.795 412.43 428.583 412.271 428.424C412.117 428.261 411.874 428.142 411.543 428.067L410.045 427.696C409.462 427.556 408.995 427.337 408.645 427.038C408.3 426.739 408.125 426.322 408.12 425.785C408.12 425.36 408.223 424.987 408.428 424.665C408.633 424.343 408.939 424.089 409.345 423.902C409.756 423.715 410.267 423.622 410.878 423.622C411.667 423.622 412.301 423.799 412.782 424.154C413.263 424.504 413.515 425.02 413.538 425.701H412.39C412.343 425.356 412.189 425.083 411.928 424.882C411.667 424.677 411.312 424.574 410.864 424.574C410.407 424.574 410.031 424.667 409.737 424.854C409.448 425.036 409.303 425.321 409.303 425.708C409.303 425.965 409.406 426.168 409.611 426.317C409.821 426.462 410.124 426.583 410.521 426.681L411.977 427.045C412.308 427.134 412.584 427.25 412.803 427.395C413.022 427.54 413.195 427.701 413.321 427.878C413.447 428.055 413.536 428.242 413.587 428.438C413.643 428.629 413.671 428.814 413.671 428.991C413.671 429.434 413.561 429.817 413.342 430.139C413.123 430.456 412.805 430.704 412.39 430.881C411.975 431.054 411.473 431.14 410.885 431.14ZM418.352 431.14C417.68 431.14 417.087 430.993 416.574 430.699C416.061 430.405 415.659 429.983 415.37 429.432C415.081 428.881 414.936 428.221 414.936 427.451C414.936 426.69 415.067 426.023 415.328 425.449C415.589 424.875 415.967 424.427 416.462 424.105C416.961 423.783 417.561 423.622 418.261 423.622C418.942 423.622 419.519 423.769 419.99 424.063C420.461 424.357 420.818 424.772 421.061 425.309C421.308 425.841 421.432 426.473 421.432 427.206V427.682H416.245C416.245 428.139 416.32 428.555 416.469 428.928C416.623 429.297 416.854 429.591 417.162 429.81C417.47 430.029 417.86 430.139 418.331 430.139C418.793 430.139 419.19 430.032 419.521 429.817C419.857 429.602 420.072 429.292 420.165 428.886H421.383C421.299 429.376 421.103 429.789 420.795 430.125C420.492 430.461 420.125 430.715 419.696 430.888C419.271 431.056 418.823 431.14 418.352 431.14ZM416.252 426.807H420.186C420.186 426.392 420.116 426.018 419.976 425.687C419.836 425.351 419.621 425.087 419.332 424.896C419.047 424.7 418.688 424.602 418.254 424.602C417.801 424.602 417.426 424.712 417.127 424.931C416.828 425.146 416.607 425.423 416.462 425.764C416.317 426.1 416.247 426.448 416.252 426.807ZM430.395 431.14C429.485 431.14 428.708 430.932 428.064 430.517C427.424 430.102 426.934 429.504 426.594 428.725C426.258 427.946 426.09 427.005 426.09 425.904C426.09 424.807 426.258 423.874 426.594 423.104C426.93 422.334 427.417 421.748 428.057 421.347C428.701 420.941 429.48 420.738 430.395 420.738C431.109 420.738 431.741 420.887 432.292 421.186C432.842 421.48 433.286 421.874 433.622 422.369C433.958 422.864 434.156 423.407 434.217 424H432.838C432.763 423.603 432.621 423.244 432.411 422.922C432.201 422.6 431.925 422.343 431.585 422.152C431.244 421.961 430.836 421.865 430.36 421.865C429.748 421.865 429.23 422.01 428.806 422.299C428.386 422.584 428.066 423.025 427.847 423.622C427.632 424.219 427.525 424.985 427.525 425.918C427.525 427.327 427.765 428.363 428.246 429.026C428.731 429.684 429.436 430.013 430.36 430.013C430.836 430.013 431.244 429.913 431.585 429.712C431.925 429.511 432.201 429.243 432.411 428.907C432.621 428.571 432.763 428.207 432.838 427.815H434.217C434.165 428.244 434.049 428.66 433.867 429.061C433.689 429.458 433.444 429.812 433.132 430.125C432.819 430.438 432.434 430.685 431.977 430.867C431.524 431.049 430.997 431.14 430.395 431.14ZM438.858 431.14C438.19 431.14 437.607 430.998 437.108 430.713C436.613 430.424 436.228 430.001 435.953 429.446C435.677 428.891 435.54 428.212 435.54 427.409C435.54 426.653 435.668 425.99 435.925 425.421C436.181 424.852 436.557 424.411 437.052 424.098C437.546 423.781 438.151 423.622 438.865 423.622C439.532 423.622 440.111 423.769 440.601 424.063C441.091 424.352 441.471 424.779 441.742 425.344C442.017 425.909 442.155 426.597 442.155 427.409C442.155 428.146 442.029 428.795 441.777 429.355C441.525 429.915 441.154 430.354 440.664 430.671C440.178 430.984 439.576 431.14 438.858 431.14ZM438.865 430.118C439.294 430.118 439.658 430.008 439.957 429.789C440.255 429.57 440.482 429.255 440.636 428.844C440.794 428.433 440.874 427.946 440.874 427.381C440.874 426.863 440.804 426.399 440.664 425.988C440.528 425.573 440.314 425.244 440.02 425.001C439.726 424.758 439.341 424.637 438.865 424.637C438.426 424.637 438.055 424.747 437.752 424.966C437.448 425.181 437.217 425.493 437.059 425.904C436.905 426.315 436.828 426.807 436.828 427.381C436.828 427.89 436.895 428.352 437.031 428.767C437.171 429.182 437.39 429.511 437.689 429.754C437.992 429.997 438.384 430.118 438.865 430.118ZM443.806 431V423.762H445.059V424.812C445.176 424.611 445.337 424.422 445.542 424.245C445.752 424.068 446.004 423.925 446.298 423.818C446.597 423.711 446.94 423.657 447.327 423.657C447.784 423.657 448.204 423.748 448.587 423.93C448.974 424.112 449.282 424.397 449.511 424.784C449.744 425.167 449.861 425.661 449.861 426.268V431H448.566V426.394C448.566 425.829 448.417 425.412 448.118 425.141C447.824 424.866 447.441 424.728 446.97 424.728C446.643 424.728 446.338 424.782 446.053 424.889C445.768 424.992 445.537 425.15 445.36 425.365C445.183 425.575 445.094 425.841 445.094 426.163V431H443.806ZM454.728 431.14C454.075 431.14 453.496 430.998 452.992 430.713C452.493 430.428 452.101 430.008 451.816 429.453C451.536 428.898 451.396 428.216 451.396 427.409C451.396 426.653 451.524 425.993 451.781 425.428C452.042 424.859 452.42 424.415 452.915 424.098C453.414 423.781 454.019 423.622 454.728 423.622C455.246 423.622 455.71 423.722 456.121 423.923C456.536 424.119 456.877 424.399 457.143 424.763C457.409 425.127 457.572 425.556 457.633 426.051H456.485C456.443 425.799 456.345 425.568 456.191 425.358C456.042 425.148 455.843 424.98 455.596 424.854C455.353 424.728 455.066 424.665 454.735 424.665C454.114 424.665 453.608 424.889 453.216 425.337C452.829 425.785 452.635 426.471 452.635 427.395C452.635 428.23 452.812 428.9 453.167 429.404C453.526 429.903 454.054 430.153 454.749 430.153C455.08 430.153 455.37 430.09 455.617 429.964C455.864 429.833 456.063 429.663 456.212 429.453C456.361 429.238 456.457 429.01 456.499 428.767H457.626C457.565 429.252 457.4 429.672 457.129 430.027C456.863 430.382 456.522 430.657 456.107 430.853C455.696 431.044 455.237 431.14 454.728 431.14ZM462.379 431.14C461.707 431.14 461.114 430.993 460.601 430.699C460.088 430.405 459.686 429.983 459.397 429.432C459.108 428.881 458.963 428.221 458.963 427.451C458.963 426.69 459.094 426.023 459.355 425.449C459.616 424.875 459.994 424.427 460.489 424.105C460.988 423.783 461.588 423.622 462.288 423.622C462.969 423.622 463.546 423.769 464.017 424.063C464.488 424.357 464.845 424.772 465.088 425.309C465.335 425.841 465.459 426.473 465.459 427.206V427.682H460.272C460.272 428.139 460.347 428.555 460.496 428.928C460.65 429.297 460.881 429.591 461.189 429.81C461.497 430.029 461.887 430.139 462.358 430.139C462.82 430.139 463.217 430.032 463.548 429.817C463.884 429.602 464.099 429.292 464.192 428.886H465.41C465.326 429.376 465.13 429.789 464.822 430.125C464.519 430.461 464.152 430.715 463.723 430.888C463.298 431.056 462.85 431.14 462.379 431.14ZM460.279 426.807H464.213C464.213 426.392 464.143 426.018 464.003 425.687C463.863 425.351 463.648 425.087 463.359 424.896C463.074 424.7 462.715 424.602 462.281 424.602C461.828 424.602 461.453 424.712 461.154 424.931C460.855 425.146 460.634 425.423 460.489 425.764C460.344 426.1 460.274 426.448 460.279 426.807ZM467.18 431V423.762H468.433V424.812C468.549 424.611 468.71 424.422 468.916 424.245C469.126 424.068 469.378 423.925 469.672 423.818C469.97 423.711 470.313 423.657 470.701 423.657C471.158 423.657 471.578 423.748 471.961 423.93C472.348 424.112 472.656 424.397 472.885 424.784C473.118 425.167 473.235 425.661 473.235 426.268V431H471.94V426.394C471.94 425.829 471.79 425.412 471.492 425.141C471.198 424.866 470.815 424.728 470.344 424.728C470.017 424.728 469.711 424.782 469.427 424.889C469.142 424.992 468.911 425.15 468.734 425.365C468.556 425.575 468.468 425.841 468.468 426.163V431H467.18ZM477.542 431.035C477.043 431.035 476.655 430.967 476.38 430.832C476.105 430.697 475.911 430.496 475.799 430.23C475.692 429.964 475.638 429.637 475.638 429.25V424.707H474.462V423.762H475.673L475.988 421.655H476.94V423.755H478.571V424.707H476.94V429.208C476.94 429.465 476.966 429.654 477.017 429.775C477.073 429.892 477.164 429.966 477.29 429.999C477.416 430.032 477.593 430.048 477.822 430.048H478.613V430.916C478.524 430.949 478.389 430.977 478.207 431C478.03 431.023 477.808 431.035 477.542 431.035ZM480.261 431V423.762H481.493V425.155C481.614 424.81 481.784 424.525 482.004 424.301C482.223 424.072 482.473 423.902 482.753 423.79C483.037 423.678 483.331 423.622 483.635 423.622C483.742 423.622 483.847 423.629 483.95 423.643C484.052 423.657 484.132 423.68 484.188 423.713V424.966C484.118 424.933 484.027 424.912 483.915 424.903C483.807 424.889 483.716 424.882 483.642 424.882C483.352 424.863 483.082 424.882 482.83 424.938C482.578 424.989 482.356 425.08 482.165 425.211C481.973 425.342 481.822 425.514 481.71 425.729C481.602 425.939 481.549 426.196 481.549 426.499V431H480.261ZM487.43 431.14C486.958 431.14 486.543 431.058 486.184 430.895C485.829 430.727 485.549 430.487 485.344 430.174C485.143 429.861 485.043 429.483 485.043 429.04C485.043 428.237 485.323 427.64 485.883 427.248C486.443 426.856 487.341 426.646 488.578 426.618L489.866 426.583V426.016C489.866 425.573 489.733 425.223 489.467 424.966C489.201 424.705 488.79 424.574 488.235 424.574C487.819 424.579 487.453 424.677 487.136 424.868C486.818 425.059 486.615 425.372 486.527 425.806H485.386C485.414 425.335 485.544 424.938 485.778 424.616C486.016 424.289 486.349 424.042 486.779 423.874C487.208 423.706 487.714 423.622 488.298 423.622C488.928 423.622 489.45 423.711 489.866 423.888C490.286 424.065 490.598 424.327 490.804 424.672C491.014 425.017 491.119 425.442 491.119 425.946V431H490.013L489.915 429.642C489.639 430.207 489.285 430.599 488.851 430.818C488.421 431.033 487.948 431.14 487.43 431.14ZM487.815 430.209C488.062 430.209 488.305 430.165 488.543 430.076C488.785 429.987 489.005 429.868 489.201 429.719C489.401 429.565 489.562 429.395 489.684 429.208C489.805 429.017 489.866 428.821 489.866 428.62V427.381L488.795 427.402C488.239 427.411 487.777 427.467 487.409 427.57C487.04 427.673 486.762 427.834 486.576 428.053C486.389 428.272 486.296 428.559 486.296 428.914C486.296 429.32 486.438 429.637 486.723 429.866C487.007 430.095 487.371 430.209 487.815 430.209ZM495.42 431.035C494.921 431.035 494.533 430.967 494.258 430.832C493.983 430.697 493.789 430.496 493.677 430.23C493.57 429.964 493.516 429.637 493.516 429.25V424.707H492.34V423.762H493.551L493.866 421.655H494.818V423.755H496.449V424.707H494.818V429.208C494.818 429.465 494.844 429.654 494.895 429.775C494.951 429.892 495.042 429.966 495.168 429.999C495.294 430.032 495.471 430.048 495.7 430.048H496.491V430.916C496.402 430.949 496.267 430.977 496.085 431C495.908 431.023 495.686 431.035 495.42 431.035ZM498.173 431V423.762H499.426V431H498.173ZM498.138 422.229V420.885H499.461V422.229H498.138ZM504.425 431.14C503.758 431.14 503.175 430.998 502.675 430.713C502.181 430.424 501.796 430.001 501.52 429.446C501.245 428.891 501.107 428.212 501.107 427.409C501.107 426.653 501.236 425.99 501.492 425.421C501.749 424.852 502.125 424.411 502.619 424.098C503.114 423.781 503.718 423.622 504.432 423.622C505.1 423.622 505.678 423.769 506.168 424.063C506.658 424.352 507.039 424.779 507.309 425.344C507.585 425.909 507.722 426.597 507.722 427.409C507.722 428.146 507.596 428.795 507.344 429.355C507.092 429.915 506.721 430.354 506.231 430.671C505.746 430.984 505.144 431.14 504.425 431.14ZM504.432 430.118C504.862 430.118 505.226 430.008 505.524 429.789C505.823 429.57 506.049 429.255 506.203 428.844C506.362 428.433 506.441 427.946 506.441 427.381C506.441 426.863 506.371 426.399 506.231 425.988C506.096 425.573 505.881 425.244 505.587 425.001C505.293 424.758 504.908 424.637 504.432 424.637C503.994 424.637 503.623 424.747 503.319 424.966C503.016 425.181 502.785 425.493 502.626 425.904C502.472 426.315 502.395 426.807 502.395 427.381C502.395 427.89 502.463 428.352 502.598 428.767C502.738 429.182 502.958 429.511 503.256 429.754C503.56 429.997 503.952 430.118 504.432 430.118ZM509.373 431V423.762H510.626V424.812C510.743 424.611 510.904 424.422 511.109 424.245C511.319 424.068 511.571 423.925 511.865 423.818C512.164 423.711 512.507 423.657 512.894 423.657C513.352 423.657 513.772 423.748 514.154 423.93C514.542 424.112 514.85 424.397 515.078 424.784C515.312 425.167 515.428 425.661 515.428 426.268V431H514.133V426.394C514.133 425.829 513.984 425.412 513.685 425.141C513.391 424.866 513.009 424.728 512.537 424.728C512.211 424.728 511.905 424.782 511.62 424.889C511.336 424.992 511.105 425.15 510.927 425.365C510.75 425.575 510.661 425.841 510.661 426.163V431H509.373Z" fill="white"/>
</g>
</g>
<defs>
<filter id="filter0_dd_1_3090" x="0" y="0" width="564" height="469" filterUnits="userSpaceOnUse" color-interpolation-filters="sRGB">
<feFlood flood-opacity="0" result="BackgroundImageFix"/>
<feColorMatrix in="SourceAlpha" type="matrix" values="0 0 0 0 0 0 0 0 0 0 0 0 0 0 0 0 0 0 127 0" result="hardAlpha"/>
<feOffset/>
<feGaussianBlur stdDeviation="0.5"/>
<feColorMatrix type="matrix" values="0 0 0 0 0 0 0 0 0 0 0 0 0 0 0 0 0 0 0.25 0"/>
<feBlend mode="normal" in2="BackgroundImageFix" result="effect1_dropShadow_1_3090"/>
<feColorMatrix in="SourceAlpha" type="matrix" values="0 0 0 0 0 0 0 0 0 0 0 0 0 0 0 0 0 0 127 0" result="hardAlpha"/>
<feOffset dy="4"/>
<feGaussianBlur stdDeviation="2"/>
<feColorMatrix type="matrix" values="0 0 0 0 0 0 0 0 0 0 0 0 0 0 0 0 0 0 0.05 0"/>
<feBlend mode="normal" in2="effect1_dropShadow_1_3090" result="effect2_dropShadow_1_3090"/>
<feBlend mode="normal" in="SourceGraphic" in2="effect2_dropShadow_1_3090" result="shape"/>
</filter>
<clipPath id="clip0_1_3090">
<rect width="463" height="227" fill="white" transform="translate(76 133)"/>
</clipPath>
<clipPath id="clip1_1_3090">
<rect width="489" height="22" fill="white" transform="translate(28 415)"/>
</clipPath>
</defs>
</svg>
